<svg id="Bootstrap" xmlns="http://www.w3.org/2000/svg" width="552" height="634.154" viewBox="0 0 552 634.154">
  <g id="polymer" transform="translate(0 484.154)">
    <g id="Component_1_1" data-name="Component 1 – 1">
      <text id="Bootstrap-2" data-name="Bootstrap" transform="translate(0 119)" fill="#563d7c" font-size="125" font-family="Roboto-Bold, Roboto" font-weight="700"><tspan x="0" y="0">Bootstrap</tspan></text>
    </g>
  </g>
  <g id="Bootstrap-3" data-name="Bootstrap" transform="translate(43.923)">
    <path id="Path_27" data-name="Path 27" d="M447.231,372.692a74.758,74.758,0,0,1-74.538,74.538H74.538A74.758,74.758,0,0,1,0,372.692V74.538A74.758,74.758,0,0,1,74.538,0H372.692a74.758,74.758,0,0,1,74.538,74.538Z" fill="#563d7c"/>
    <path id="Path_28" data-name="Path 28" d="M166.3,133H293.088q35.077,0,56.269,16.077c14.1,10.742,21.192,26.892,21.192,48.6q0,19.731-9.646,33.762c-6.431,9.354-15.638,16.662-27.623,21.777v.731q24.115,5.152,36.538,22.8c8.258,11.838,12.423,26.6,12.423,44.431a74.355,74.355,0,0,1-5.481,28.646,57.883,57.883,0,0,1-17.173,23.019c-7.819,6.431-17.758,11.546-29.962,15.346s-26.673,5.7-43.481,5.7H166.3Zm45.673,109.25h74.538c10.962,0,20.1-3.069,27.4-9.354S324.877,217.7,324.877,206c0-13.154-3.288-22.435-9.865-27.769s-16.077-8.038-28.5-8.038H211.973V242.25Zm0,114.365h80.75c13.885,0,24.7-3.581,32.3-10.815,7.673-7.161,11.546-17.392,11.546-30.546,0-12.935-3.8-22.8-11.546-29.815s-18.415-10.377-32.3-10.377h-80.75Z" transform="translate(-44.773 -35.808)" fill="#fff"/>
  </g>
</svg>
