<svg id="Component_3_1" data-name="Component 3 – 1" xmlns="http://www.w3.org/2000/svg" width="651.02" height="651.02" viewBox="0 0 651.02 651.02">
  <g id="Expertise2" transform="translate(-227.6 -234.52)">
    <g id="Background1">
      <circle id="XMLID_1178_" cx="325.51" cy="325.51" r="325.51" transform="translate(227.6 234.52)" fill="#cbe9ff"/>
    </g>
  </g>
  <g id="_221" data-name="221" transform="translate(-137.988 -118.78)">
    <path id="Path_7" data-name="Path 7" d="M504.871,319.758l-61.7-61.7a81.41,81.41,0,0,0-15.083,7.151l65.671,65.671Z" transform="translate(60.579 24.17)" fill="#7ad025"/>
    <path id="Path_8" data-name="Path 8" d="M520.438,298.969,475.177,253.72a122.251,122.251,0,0,0-21.067,1.167l55.205,55.205Z" transform="translate(66.861 23.11)" fill="#7ad025"/>
    <path id="Path_9" data-name="Path 9" d="M530.224,226.64a83.312,83.312,0,0,1,4.606-28.478,68.391,68.391,0,0,1,16.337-25.25L536.195,157.94a84.551,84.551,0,0,0-20.3,31.718,99.532,99.532,0,0,0-5.437,30.7c-.521,18.336,2.806,37.081,6.679,55.876.621,3,1.266,6.021,1.912,9.025L543.8,310.013q-1.508-7.877-3.153-15.58C535.45,269.965,530.112,246.924,530.224,226.64Z" transform="translate(80.451 0)" fill="#30d7e9"/>
    <g id="Group_1" data-name="Group 1" transform="translate(590.792 176.648)">
      <path id="Path_10" data-name="Path 10" d="M565.468,253.43l-53.89-53.89a135.587,135.587,0,0,0-1.2,21.029l43.971,43.971Z" transform="translate(-510.354 -166.605)" fill="#30d7e9"/>
      <path id="Path_11" data-name="Path 11" d="M586.3,237.985,521.333,173.01a88.947,88.947,0,0,0-6.753,15.48L575.186,249.1Z" transform="translate(-509.334 -173.01)" fill="#30d7e9"/>
    </g>
    <path id="Path_12" data-name="Path 12" d="M610.8,296.83l-53.889-53.89L545.79,254.051l43.971,43.971A134.143,134.143,0,0,0,610.8,296.83Z" transform="translate(88.993 20.52)" fill="#7ad025"/>
    <path id="Path_13" data-name="Path 13" d="M563.39,236.473,624,297.079a88.525,88.525,0,0,0,15.48-6.753L574.513,225.35Z" transform="translate(93.242 16.273)" fill="#7ad025"/>
    <g id="Group_6" data-name="Group 6" transform="translate(193.872 571.657)">
      <path id="Path_14" data-name="Path 14" d="M273.66,635.154a68.193,68.193,0,0,0,16.5-25.66,81.359,81.359,0,0,0,4.407-25.176c.472-15.567-2.446-32.835-6.257-51.208-2.334-11.322-4.99-23.053-7.287-35.07l24.766,24.766c4.407,20.669,8.677,41.326,8.64,61.537a101.621,101.621,0,0,1-5.673,34.611,84.489,84.489,0,0,1-20.111,31.184Z" transform="translate(-170.573 -489.554)" fill="#30d7e9"/>
      <g id="Group_5" data-name="Group 5" transform="translate(65.633 45.257)">
        <g id="Group_4" data-name="Group 4">
          <g id="Group_2" data-name="Group 2" transform="translate(0 21.849)">
            <path id="Path_15" data-name="Path 15" d="M254.6,545.26l61.661,61.661A81.409,81.409,0,0,1,309.111,622L243.49,556.383Z" transform="translate(-243.49 -545.26)" fill="#30d7e9"/>
          </g>
          <g id="Group_3" data-name="Group 3" transform="translate(21.849)">
            <path id="Path_16" data-name="Path 16" d="M272.2,527.66l45.212,45.212a122.246,122.246,0,0,1-1.167,21.067L261.09,538.783Z" transform="translate(-261.09 -527.66)" fill="#30d7e9"/>
          </g>
        </g>
      </g>
      <path id="Path_17" data-name="Path 17" d="M205.7,495.6l61.661,61.661-11.123,11.111L190.62,502.751A81.413,81.413,0,0,1,205.7,495.6Z" transform="translate(-190.62 -490.143)" fill="#7ad025"/>
      <path id="Path_18" data-name="Path 18" d="M237.707,491.249l45.212,45.212L271.8,547.571,216.64,492.416A123.5,123.5,0,0,1,237.707,491.249Z" transform="translate(-184.339 -491.204)" fill="#7ad025"/>
    </g>
    <g id="Group_8" data-name="Group 8" transform="translate(297.236 424.106)">
      <path id="Path_19" data-name="Path 19" d="M356.347,372.549l45.212,45.212-11.123,11.123L335.28,373.728A122.24,122.24,0,0,1,356.347,372.549Z" transform="translate(-259.062 -372.308)" fill="#30d7e9"/>
      <path id="Path_20" data-name="Path 20" d="M385.994,438.548l-11.123,11.123L309.25,384.05a82.212,82.212,0,0,1,15.083-7.151Z" transform="translate(-265.346 -371.247)" fill="#30d7e9"/>
      <path id="Path_21" data-name="Path 21" d="M437.75,402.6c-24.493-5.214-47.534-10.552-67.806-10.44a83.313,83.313,0,0,0-28.478,4.606A68.355,68.355,0,0,0,316.2,413.131,72.415,72.415,0,0,0,299.084,439.5a88.081,88.081,0,0,0-5.127,26.057c-.906,16.1,1.527,33.866,4.928,52.6,2.024,11.272,4.382,22.867,6.493,34.673l-24.145-24.145c-4.047-21.3-7.808-42.729-7.2-63.573a108.334,108.334,0,0,1,6.555-35.306,88.81,88.81,0,0,1,20.645-31.656,84.61,84.61,0,0,1,31.743-20.322,99.165,99.165,0,0,1,30.712-5.425c18.336-.521,37.081,2.806,55.876,6.679,3,.621,6.021,1.266,9.025,1.912l24.754,24.754Q445.446,404.255,437.75,402.6Z" transform="translate(-273.864 -372.346)" fill="#30d7e9"/>
      <path id="Path_22" data-name="Path 22" d="M440.511,465.458c.472-15.58-2.446-32.835-6.257-51.208-2.321-11.322-4.99-23.053-7.287-35.07l24.766,24.766c4.407,20.669,8.677,41.327,8.64,61.537a101.318,101.318,0,0,1-5.673,34.61A84.77,84.77,0,0,1,434.577,531.3a88.979,88.979,0,0,1-32.2,20.856,106.266,106.266,0,0,1-31.308,6.207c-18.745,1.018-38.012-1.763-57.254-5.226q-4.879-.894-9.77-1.825L279.91,527.181q7.486,1.322,14.847,2.743c24.828,4.767,48.477,9.472,69.444,8.8a90.29,90.29,0,0,0,29.471-5.412,72.593,72.593,0,0,0,25.933-16.958,68.16,68.16,0,0,0,16.511-25.685A82.284,82.284,0,0,0,440.511,465.458Z" transform="translate(-272.429 -370.697)" fill="#7ad025"/>
      <g id="Group_7" data-name="Group 7" transform="translate(43.954 89.113)">
        <path id="Path_23" data-name="Path 23" d="M355.567,444.13l67.284,67.284c-1.279,1.452-2.607,2.892-4.022,4.308-2.384,2.384-4.829,4.568-7.126,6.766L344.63,455.414Z" transform="translate(-300.759 -444.13)" fill="#7ad025"/>
        <path id="Path_24" data-name="Path 24" d="M320.4,479.32l53.927,53.927a135.58,135.58,0,0,1-21.029,1.2L309.29,490.443Z" transform="translate(-309.29 -435.635)" fill="#7ad025"/>
        <path id="Path_25" data-name="Path 25" d="M338,461.73l65.013,65.013a88.524,88.524,0,0,1-15.48,6.753L326.89,472.853Z" transform="translate(-305.041 -439.881)" fill="#7ad025"/>
      </g>
      <path id="Path_26" data-name="Path 26" d="M284.853,409.43l64.975,64.963L338.718,485.5,278.1,424.91A87.221,87.221,0,0,1,284.853,409.43Z" transform="translate(-272.866 -363.394)" fill="#30d7e9"/>
      <path id="Path_27" data-name="Path 27" d="M273.9,456.979a135.587,135.587,0,0,1,1.2-21.029l53.877,53.877-11.123,11.111Z" transform="translate(-273.884 -356.992)" fill="#30d7e9"/>
      <path id="Path_28" data-name="Path 28" d="M297.112,394.012c1.415-1.415,2.868-2.743,4.32-4.022l67.247,67.247L357.556,468.36,290.52,401.324C292.543,398.841,294.728,396.408,297.112,394.012Z" transform="translate(-269.868 -368.087)" fill="#30d7e9"/>
      <path id="Path_29" data-name="Path 29" d="M440.5,465.458c.472-15.58-2.446-32.835-6.257-51.208-2.321-11.322-4.99-23.053-7.287-35.07l.174.174L451.9,404.12h0l-.174-.174c4.407,20.669,8.677,41.327,8.64,61.537a101.319,101.319,0,0,1-5.673,34.61A84.77,84.77,0,0,1,434.57,531.3a88.979,88.979,0,0,1-32.2,20.856,106.266,106.266,0,0,1-31.308,6.207c-18.745,1.018-38.012-1.763-57.254-5.226q-4.86-.894-9.72-1.813L279.94,527.181c4.966.881,9.919,1.8,14.81,2.731,24.828,4.767,48.477,9.472,69.444,8.8a90.29,90.29,0,0,0,29.471-5.413A72.591,72.591,0,0,0,419.6,516.343a68.161,68.161,0,0,0,16.511-25.685A82.139,82.139,0,0,0,440.5,465.458Z" transform="translate(-272.422 -370.697)" fill="#7ad025"/>
    </g>
    <g id="Group_10" data-name="Group 10" transform="translate(444.753 276.581)">
      <path id="Path_30" data-name="Path 30" d="M472.128,415.614a135.587,135.587,0,0,0,21.029-1.2l-53.877-53.89L428.17,371.643Z" transform="translate(-384.154 -227.676)" fill="#30d7e9"/>
      <path id="Path_31" data-name="Path 31" d="M537.688,396.887c1.415-1.415,2.744-2.868,4.022-4.32L474.463,325.32,463.34,336.431l67.036,67.036A91.788,91.788,0,0,0,537.688,396.887Z" transform="translate(-375.664 -236.174)" fill="#30d7e9"/>
      <path id="Path_32" data-name="Path 32" d="M548.965,275.93c5.214,24.493,10.552,47.534,10.44,67.806a83.314,83.314,0,0,1-4.606,28.478,68.355,68.355,0,0,1-16.362,25.263A72.415,72.415,0,0,1,512.071,414.6a88.08,88.08,0,0,1-26.057,5.127c-16.1.906-33.866-1.527-52.611-4.928-11.26-2.024-22.867-4.382-34.673-6.493l24.145,24.145c21.3,4.059,42.729,7.808,63.573,7.2a108.333,108.333,0,0,0,35.306-6.555,88.812,88.812,0,0,0,31.656-20.645A84.611,84.611,0,0,0,573.731,380.7a99.157,99.157,0,0,0,5.425-30.7c.521-18.336-2.806-37.081-6.679-55.876-.621-3-1.266-6.021-1.912-9.025L545.812,260.35Q547.32,268.227,548.965,275.93Z" transform="translate(-391.261 -251.858)" fill="#30d7e9"/>
      <path id="Path_33" data-name="Path 33" d="M485.9,273.373c15.58-.472,32.835,2.446,51.208,6.257,11.322,2.334,23.053,4.99,35.07,7.287L547.41,262.15c-20.669-4.407-41.326-8.677-61.537-8.64a101.62,101.62,0,0,0-34.61,5.673,84.669,84.669,0,0,0-31.209,20.123,88.976,88.976,0,0,0-20.856,32.2,106.268,106.268,0,0,0-6.207,31.308c-1.018,18.745,1.763,38.012,5.226,57.254q.894,4.879,1.825,9.77l24.133,24.133q-1.322-7.486-2.743-14.847c-4.767-24.828-9.472-48.477-8.8-69.444a90.288,90.288,0,0,1,5.413-29.471A72.591,72.591,0,0,1,435,294.278a68.16,68.16,0,0,1,25.685-16.511A82.153,82.153,0,0,1,485.9,273.373Z" transform="translate(-392.698 -253.51)" fill="#7ad025"/>
      <g id="Group_9" data-name="Group 9" transform="translate(0 21.911)">
        <path id="Path_34" data-name="Path 34" d="M487.544,338.444,420.26,271.16c-1.452,1.279-2.892,2.607-4.308,4.022-2.384,2.384-4.568,4.829-6.592,7.3l67.073,67.073Z" transform="translate(-388.695 -271.16)" fill="#7ad025"/>
        <path id="Path_35" data-name="Path 35" d="M447.865,371.047,393.938,317.12a135.576,135.576,0,0,0-1.2,21.029l44.008,44.008Z" transform="translate(-392.714 -260.065)" fill="#7ad025"/>
        <path id="Path_36" data-name="Path 36" d="M468.7,355.6,403.683,290.59a88.94,88.94,0,0,0-6.753,15.48l60.643,60.643Z" transform="translate(-391.696 -266.469)" fill="#7ad025"/>
      </g>
      <path id="Path_37" data-name="Path 37" d="M521.833,407.9,456.871,342.92,445.76,354.031l60.606,60.606A87.44,87.44,0,0,0,521.833,407.9Z" transform="translate(-379.908 -231.925)" fill="#30d7e9"/>
      <path id="Path_38" data-name="Path 38" d="M554.875,335.342,509.663,290.13,498.54,301.241,553.7,356.4A119.616,119.616,0,0,0,554.875,335.342Z" transform="translate(-367.166 -244.669)" fill="#30d7e9"/>
      <path id="Path_39" data-name="Path 39" d="M492.073,307.73,480.95,318.841l65.621,65.621a81.418,81.418,0,0,0,7.151-15.083Z" transform="translate(-371.413 -240.421)" fill="#30d7e9"/>
    </g>
    <path id="Path_40" data-name="Path 40" d="M654.356,254.45a68.139,68.139,0,0,1-25.672,16.5,81.359,81.359,0,0,1-25.176,4.407c-15.567.472-32.835-2.446-51.208-6.257-11.321-2.321-23.053-4.99-35.07-7.287L542,286.578c20.67,4.419,41.327,8.677,61.537,8.64a101.62,101.62,0,0,0,34.611-5.673,84.646,84.646,0,0,0,31.184-20.111Z" transform="translate(82.098 23.298)" fill="#7ad025"/>
    <path id="Path_41" data-name="Path 41" d="M245.85,511.019a83.314,83.314,0,0,0-28.478,4.605,68.276,68.276,0,0,0-25.25,16.349L177.15,517a84.551,84.551,0,0,1,31.718-20.3,99.229,99.229,0,0,1,30.712-5.425c18.336-.521,37.081,2.806,55.876,6.679,3,.621,6.021,1.266,9.025,1.912l24.754,24.754q-7.877-1.508-15.58-3.141C289.162,516.245,266.122,510.907,245.85,511.019Z" transform="translate(0 80.458)" fill="#7ad025"/>
    <path id="Path_42" data-name="Path 42" d="M373.2,426.53l61.7,61.7a81.409,81.409,0,0,1-7.151,15.083L362.08,437.641Z" transform="translate(44.644 64.84)" fill="#7ad025"/>
    <path id="Path_43" data-name="Path 43" d="M390.943,409.08l45.249,45.249a122.252,122.252,0,0,1-1.167,21.067L379.82,420.191Z" transform="translate(48.926 60.627)" fill="#7ad025"/>
  </g>
</svg>
