<svg xmlns="http://www.w3.org/2000/svg" width="651.02" height="651.02" viewBox="0 0 651.02 651.02">
  <g id="Expertise2" transform="translate(-227.6 -234.52)">
    <g id="Background1">
      <circle id="XMLID_1178_" cx="325.51" cy="325.51" r="325.51" transform="translate(227.6 234.52)" fill="#cbe9ff"/>
    </g>
    <g id="Object">
      <g id="XMLID_517_">
        <path id="XMLID_531_" d="M402.13,508.97l-32.09,15.99-48.49-42.62L265.24,596l10.3,2.71,47.35-95.89L365,541.88l42.87-22.04A32.35,32.35,0,0,1,402.13,508.97Z" fill="#ce4a37"/>
        <path id="XMLID_530_" d="M856.546,477.74,756.5,587.85l-37.542-38.57-65.509,81.41-4.47-13.44a44.439,44.439,0,0,1-11.336,2.17l14.166,41.74L720.1,568l34.287,40.16L867.778,481.8Z" fill="#ce4a37"/>
        <path id="XMLID_529_" d="M576.87,798.97l-5.65.39a32.754,32.754,0,0,1-34.85-30.31l-7.66-110.17a32.754,32.754,0,0,1,30.31-34.85l5.65-.39a32.754,32.754,0,0,1,34.85,30.31l7.66,110.17A32.754,32.754,0,0,1,576.87,798.97Z" fill="#0c3c4f"/>
        <circle id="XMLID_523_" cx="138.98" cy="138.98" r="138.98" transform="translate(417.07 348.64)" fill="#fff1ba" opacity="0.54"/>
        <path id="XMLID_522_" d="M644.76,603.87,593.78,366.4,498.94,559.38,451,462.5l-36.3,28.05c.35,7.1,1.27,14.14,2.3,21.17l26.82-21.38,56.82,124.14,87.51-201.85,45.09,205.82C635.87,612.71,640.15,608.17,644.76,603.87Z" fill="#ce4a37"/>
        <g id="XMLID_518_">
          <path id="XMLID_519_" d="M556.27,649.14c-3.41,0-6.84-.11-10.27-.32a161.5,161.5,0,0,1-96.81-282.27h0A161.5,161.5,0,1,1,556.27,649.14ZM466.82,386.53c-55.74,49.2-61.07,134.58-11.87,190.32a133.964,133.964,0,0,0,92.7,45.35q4.3.27,8.58.27A134.844,134.844,0,0,0,657.14,398.4c-49.2-55.75-134.58-61.07-190.32-11.87Z" fill="#204c3d"/>
        </g>
      </g>
    </g>
  </g>
</svg>
