<svg xmlns="http://www.w3.org/2000/svg" xmlns:xlink="http://www.w3.org/1999/xlink" width="1282.427" height="719.114" viewBox="0 0 1282.427 719.114">
  <defs>
    <linearGradient id="linear-gradient" x1="0.5" y1="0.944" x2="0.5" y2="0.102" gradientUnits="objectBoundingBox">
      <stop offset="0" stop-color="#1f3a65"/>
      <stop offset="1" stop-color="#294a7a"/>
    </linearGradient>
    <linearGradient id="linear-gradient-2" y1="1.04" y2="0.166" xlink:href="#linear-gradient"/>
    <linearGradient id="linear-gradient-3" y1="1.031" y2="0.253" xlink:href="#linear-gradient"/>
    <linearGradient id="linear-gradient-4" x1="0.703" y1="0.96" x2="0.33" y2="-0.043" gradientUnits="objectBoundingBox">
      <stop offset="0" stop-color="#c2185b"/>
      <stop offset="1" stop-color="#e91e63"/>
    </linearGradient>
    <linearGradient id="linear-gradient-5" x1="0.508" y1="0.868" x2="0.491" y2="0.143" gradientUnits="objectBoundingBox">
      <stop offset="0" stop-color="#3f2323"/>
      <stop offset="1" stop-color="#5e3434"/>
    </linearGradient>
    <linearGradient id="linear-gradient-6" x1="0" y1="0.5" x2="1" y2="0.5" xlink:href="#linear-gradient"/>
    <linearGradient id="linear-gradient-7" x1="0.948" y1="-0.448" x2="0.223" y2="0.846" gradientUnits="objectBoundingBox">
      <stop offset="0" stop-color="#e2e8f7"/>
      <stop offset="1" stop-color="#fff"/>
    </linearGradient>
  </defs>
  <g id="OBJECTS" transform="translate(-55.349 -103.999)">
    <g id="Group_37" data-name="Group 37" transform="translate(55.349 103.999)">
      <g id="Group_1" data-name="Group 1" transform="translate(180.672)">
        <path id="Path_1" data-name="Path 1" d="M1104.318,465.165a631.616,631.616,0,0,1-6.752,99.747c-.323,2.229-.678,4.457-1.065,6.62-2.391,14.443-5.3,27.909-8.592,40.344q-.872,3.2-1.745,6.3c-12.662,44.254-30.653,74.165-49.841,85.212H230.3s-68.7-59.564-82.5-144.647c-.355-2.164-.678-4.329-.937-6.523-5.362-42.348,3.262-90.574,40.376-140.74,16.926-22.836,39.183-38.729,64.733-49.678,2.006-.841,3.972-1.649,6.018-2.423C295.885,344.55,340.4,339.9,385.1,339.188c2.261-.034,4.521-.066,6.782-.066,26.617-.2,53.158.9,78.332,1.908,2.391.128,4.748.225,7.107.323,40.635,1.711,77.264,2.971,103.849-1.906h.032c2.455-.453,4.78-.971,7.041-1.551h.032c29.428-7.2,43.931-23.9,33.5-59.822-20.222-69.676.483-120.744,45.536-148.944,2.295-1.452,4.684-2.842,7.107-4.166,25.486-13.825,57.69-21.063,94.127-20.962,2.552,0,5.135.064,7.753.128a353.272,353.272,0,0,1,99.908,18.7A317.534,317.534,0,0,1,929.022,145.8c2.006,1.1,4.012,2.229,5.944,3.392a307.518,307.518,0,0,1,81.174,68.157c1.516,1.743,2.971,3.52,4.425,5.33C1078.477,294.063,1103.737,386.22,1104.318,465.165Z" transform="translate(-145.416 -103.999)" fill="#e4ebf7"/>
        <path id="Path_2" data-name="Path 2" d="M715.277,590.916q-.872,3.2-1.745,6.3a267.517,267.517,0,0,1-37.275-16.668C617.144,548.44,541.882,476.924,519.076,318.388c-9.829-68.35,2.714-133.438,37.311-193.551,2.006,1.1,4.012,2.229,5.944,3.392-30.365,52.715-47.419,115.745-36.856,189.222C547.892,473.177,621.345,543.3,679.035,574.7a253.685,253.685,0,0,0,36.242,16.216Z" transform="translate(227.217 -83.037)" fill="#fff"/>
        <path id="Path_3" data-name="Path 3" d="M679.642,508.07c-.323,2.229-.678,4.457-1.065,6.62-37.341-17.54-84.4-55.688-106.369-138.509-21.221-80.205-12.76-151.4,26-215.677,1.516,1.743,2.971,3.521,4.425,5.33-36.858,62.278-44.7,131.177-24.162,208.7C599.471,453.77,643.949,490.789,679.642,508.07Z" transform="translate(272.508 -47.157)" fill="#fff"/>
        <path id="Path_4" data-name="Path 4" d="M691.686,239.376c3.133,105.24-8.852,173.234-38.86,220.523-31.43,49.548-83.85,79.495-170,97.089a236.056,236.056,0,0,1-47.483,4.941c-48.485,0-94.159-15.8-134.18-46.675C254.621,479.3,218.985,425.165,198.538,361.8c2.006-.841,3.972-1.649,6.018-2.423,20.028,62.31,54.946,115.544,100.588,150.783,51.293,39.634,112.311,53.62,176.4,40.539,160.215-32.786,209.7-108.405,203.693-311.127C683.524,182.007,693.57,136.591,715.114,104c2.552,0,5.135.064,7.753.128C700.438,135.785,689.973,181.136,691.686,239.376Z" transform="translate(-91.976 -103.999)" fill="#fff"/>
        <path id="Path_5" data-name="Path 5" d="M425.014,446.639a126.117,126.117,0,0,1-20.543,1.681c-51.65,0-110.794-31.293-139.574-119.645,2.261-.034,4.521-.066,6.782-.066C303.4,423.448,371.395,448.9,423.949,440.276c71-11.635,139.285-84.727,126.074-197.3-5.687-48.29-5.944-89.507-2.909-124.361,2.295-1.452,4.684-2.842,7.107-4.166-3.521,35.506-3.651,77.814,2.229,127.781C570.113,358.779,498.921,434.527,425.014,446.639Z" transform="translate(-25.221 -93.486)" fill="#fff"/>
        <path id="Path_6" data-name="Path 6" d="M425.357,220.6a82.269,82.269,0,0,1-14.309,32.623c-9.918,12.985-23.839,20.674-41.379,22.838a50.644,50.644,0,0,1-6.2.387,45.2,45.2,0,0,1-29.718-11.142c-11.694-9.83-20.221-25.076-26.424-41.573,2.391.128,4.748.225,7.107.323,5.749,14.6,13.372,27.811,23.482,36.308a39.059,39.059,0,0,0,30.94,9.3c15.763-1.938,28.2-8.784,37.048-20.317a73.446,73.446,0,0,0,12.373-27.2h.032C420.771,221.7,423.1,221.18,425.357,220.6Z" transform="translate(17.463 13.298)" fill="#fff"/>
        <path id="Path_7" data-name="Path 7" d="M336.686,478.611h-7.041c-28.974-66.348-70.741-110.57-124.3-131.532a203.353,203.353,0,0,0-58.272-13.115c-.355-2.165-.678-4.329-.937-6.523a210.224,210.224,0,0,1,61.568,13.631C263.62,362.972,306.969,409.164,336.686,478.611Z" transform="translate(-144.688 120.777)" fill="#fff"/>
      </g>
      <g id="Group_36" data-name="Group 36" transform="translate(0 40.756)">
        <path id="Path_8" data-name="Path 8" d="M463.007,462.485Z" transform="translate(354.746 215.873)" fill="#fff" stroke="#0f22d3" stroke-miterlimit="10" stroke-width="1.61"/>
        <g id="Group_5" data-name="Group 5" transform="translate(171.664 167.572)">
          <g id="Group_3" data-name="Group 3" transform="translate(0 124.362)">
            <g id="Group_2" data-name="Group 2">
              <path id="Path_9" data-name="Path 9" d="M201.607,336.59l-19.964,20.577-8.333-12.237-2.778-4.1c-8.882,2.229-22-15.149-27.263-24.421-5.232-9.3,15.763-23.644,15.763-23.644-3.422-10.273-17.183-16.732-17.57-19.574-.389-2.808,3.035-5.847,15.536,0,12.533,5.88,23.418,26.649,23.418,26.649,2.229-6.042-7.655-22.385-5.845-24.226,1.805-1.805,11.5.419,18.961,16.15,7.494,15.763,3.037,34.336,3.037,34.336l.1.162Z" transform="translate(-140.415 -269.849)" fill="#98b2d8"/>
              <path id="Path_10" data-name="Path 10" d="M158.8,280.626s14.832,16.967,13.239,23.628-9.069-1.067-9.069-1.067,6.864,7.932,4.644,10.557-10.5-4.038-10.5-4.038,9.891,12.315,0,10.5-22.319-20.473-12.774-22.351c0,0-1.155-13.584,7.524-8.941C151.864,288.917,147.978,277.589,158.8,280.626Z" transform="translate(-140.925 -259.527)" fill="#b1c3e8"/>
            </g>
            <path id="Path_11" data-name="Path 11" d="M322.3,531.541s16.7-48.775,7.916-96.873a1.88,1.88,0,0,1-.066-.323,2.386,2.386,0,0,0-.064-.387l-.774-3.779a203,203,0,0,1-23.069,16.862c-16.048,10.11-37.47,20.154-53.911,15.446-30.17-8.626-74.293-67.285-94.772-113.6a53.706,53.706,0,0,1,30.691-20.06s40.922,54.525,77.006,67.445a266.116,266.116,0,0,0,34.435-57.076c9.629-21.643,24.072-35.337,42.282-42.7a98.6,98.6,0,0,1,34.465-6.782l31.624-14.762a118.939,118.939,0,0,1,13.115,1.065c14.826,1.938,39.472,7.366,59.4,22.547,30.691,23.386,74.843,232.99,74.843,232.99Z" transform="translate(-124.193 -264.723)" fill="#b7cae5"/>
            <path id="Path_12" data-name="Path 12" d="M255.589,388.084c-.257-1.388-.548-2.778-.838-4.166a202.987,202.987,0,0,1-23.069,16.862l9.336-79.85C250.51,357.495,255.066,384.822,255.589,388.084Z" transform="translate(-49.626 -218.462)" fill="#97b3d1"/>
            <path id="Path_13" data-name="Path 13" d="M328.692,276.006c-4.879,31.01-35.921,59.662-58.338,59.275-18.024-.325-20.674-26.166-20.862-38.8a98.593,98.593,0,0,1,34.465-6.782l31.624-14.762A118.928,118.928,0,0,1,328.692,276.006Z" transform="translate(-31.709 -264.726)" fill="#ced9ea"/>
            <path id="Path_14" data-name="Path 14" d="M262.223,463.307s71.212-74.111,74.312-152.039l21,65.68-8.074,68.384Z" transform="translate(-18.902 -228.182)" fill="#97b3d1"/>
            <path id="Path_15" data-name="Path 15" d="M301.183,418.737H221.439A16.3,16.3,0,0,1,233.956,404.2c12.315-3.635,20.188-18.977,57.132-16.959Z" transform="translate(-59.93 -151.935)" fill="#98b2d8"/>
            <path id="Path_16" data-name="Path 16" d="M351.541,366.317s-37.568,21.606-96.728,36.95c0,0-8.208,19.783,6.193,36.338H375.46Z" transform="translate(-28.7 -172.804)" fill="#b6c5dd"/>
          </g>
          <g id="Group_4" data-name="Group 4" transform="translate(167.857)">
            <path id="Path_17" data-name="Path 17" d="M239.7,299.237s-17-23.47-14.914-39.279S241.5,247.866,241.5,247.866s-.682-38.4,34.87-28.585c0,0-.782-11.727,6.979-11.422s19.937,18.158,19.937,18.158,3.021-13.227,8.279-10.1,6.878,16.774,17.853,23.346,17.773,15.077,9.151,41.724-2.152,28.533-5.232,42.214c-2.925,12.995-5.26,20.9-13.326,21.629s-38.936-31.839-38.936-31.839Z" transform="translate(-224.603 -207.853)" fill="#5d7ca0"/>
            <path id="Path_18" data-name="Path 18" d="M310.187,294.82s-19.8,48.031-40.6,44.414c-10.337-1.805-12.638-8.108-12.728-15.408-.1-9.528,3.611-20.706-2.006-25.39L279.786,263l5.492-7.823A129.222,129.222,0,0,0,310.187,294.82Z" transform="translate(-194.176 -160.243)" fill="#98b2d8"/>
            <path id="Path_19" data-name="Path 19" d="M256.856,319.9c-.1-9.528,3.611-20.706-2.006-25.39l24.936-35.434c2.132,2.487,3.651,6.913,4.265,13.857C287.349,309.535,268,318.031,256.856,319.9Z" transform="translate(-194.176 -156.321)" fill="#799cbf"/>
            <path id="Path_20" data-name="Path 20" d="M230.919,246.273s6.742,61.872,31.989,75.8c21.941,12.1,48.591-24.505,48.055-42.613,0,0,9.565-7.3,7.968-19.127s-14.1-7.9-15.594,11.151c0,0-10.164-.724-12.036-24.537-6.381,5.284-13.268,3.655-20.5-2.772,0,0-3.591,13.254-22.066-2.235C248.734,241.938,241.761,251.4,230.919,246.273Z" transform="translate(-218.25 -173.562)" fill="#98b2d8"/>
          </g>
        </g>
        <g id="Group_11" data-name="Group 11" transform="translate(702.476 77.521)">
          <g id="Group_6" data-name="Group 6" transform="translate(35.137 386.322)">
            <path id="Path_21" data-name="Path 21" d="M572.469,363.6s32.589,54.374,43.877,80.753H501.433a471.7,471.7,0,0,0-18.054-62.326Z" transform="translate(-362.372 -347.446)" fill="#5d7ca0"/>
            <path id="Path_22" data-name="Path 22" d="M588.335,383.817c-6.289,20.84-15.877,38.631-30.1,52.143l3.886,16.5-139.061-1.721,15.48-95.19Z" transform="translate(-423.056 -355.547)" fill="#799cbf"/>
          </g>
          <g id="Group_7" data-name="Group 7" transform="translate(415.892 57.69)">
            <path id="Path_23" data-name="Path 23" d="M615.533,251.88s4.6-28.83,13.755-39.058,34.184-25.36,37.147-19.976-22.066,22.266-22.066,22.266,11.306-2.692,21,14-21.534,29.608-21.534,29.608l-6.192,14L612.875,257.1Z" transform="translate(-612.857 -191.721)" fill="#799cbf"/>
            <path id="Path_24" data-name="Path 24" d="M636.238,204.651s-13.956,14.188-11.916,18.242,9.733-2.317,9.733-2.317-6.279,9.559-1.414,12.02,12.4-5.793,12.4-5.793-6.279,8.69-2.668,10.283,22.916-12.018,19.458-15.205-5.336-.58-5.336-.58,4.04-6.8,0-8.977a4.658,4.658,0,0,0-6.592,1.882s3.3-5.216.628-7.24-8.319.58-8.319.58S644.069,198.86,636.238,204.651Z" transform="translate(-601.547 -180.716)" fill="#98b2d8"/>
            <path id="Path_25" data-name="Path 25" d="M634.6,203.538c-4.241-1.2-12.854,7.6-12.854,7.6-3.388,4.359-4.08,13.039-4.212,17.051-.433,11.185-4.666,17.137-4.666,17.137l12.568,7.924c9.733-12.537,6.547-28.593,4.977-34.274C635.157,211.891,637.134,204.262,634.6,203.538Z" transform="translate(-612.866 -179.947)" fill="#98b2d8"/>
          </g>
          <g id="Group_8" data-name="Group 8" transform="translate(0 116.616)">
            <path id="Path_26" data-name="Path 26" d="M851.3,246.125S809.31,357.952,742.579,367.87a343.536,343.536,0,0,1-68.155,4.038c-18.8-.969-28.038-3.811-28.718-4.012a.032.032,0,0,1-.032-.032s-18.315,34.1-6.459,83.112c11.821,48.97,16.15,59.208,16.15,59.208S565.4,576.337,492.243,516.1L426.218,413.441,405.54,381.273s18.995-62.374,72.55-102.907l.032-.034a163.906,163.906,0,0,1,76.167-32.042,193.6,193.6,0,0,1,52.069-.486s14.537,4.1,38.182,12.76c12.726,4.65,28.1,10.632,45.253,17.992,49,21,62.472,27.261,62.472,27.261s52.2-51.487,65.67-82.723C817.935,221.092,844.841,223.8,851.3,246.125Z" transform="translate(-405.54 -221.096)" fill="#b7cae5"/>
            <path id="Path_27" data-name="Path 27" d="M496.777,259.026c-.241,25.063-5.6,49.347-7.956,68.2l41.5-8.4,64.567,63.836s8.18,18.706-8.473,21.935c-13.049,2.531-74.021,11.013-74.021,11.013-14.054,19.127-20.4,48.388-27.414,76.781L423.061,384.815Z" transform="translate(-387.914 -182.939)" fill="#97b3d1"/>
            <path id="Path_28" data-name="Path 28" d="M531.762,291.575c-28.908-7.332-44.132-33.335-52.069-56.914a193.606,193.606,0,0,1,52.069-.485s14.537,4.1,38.182,12.76C572.722,267.576,571.719,301.688,531.762,291.575Z" transform="translate(-330.944 -209.471)" fill="#ced9ea"/>
            <path id="Path_29" data-name="Path 29" d="M561.846,273.427A315.4,315.4,0,0,0,554,319.264c-18.8-.969-28.038-3.811-28.718-4.012a.032.032,0,0,1-.032-.032S541.656,287.156,561.846,273.427Z" transform="translate(-285.117 -168.452)" fill="#97b3d1"/>
          </g>
          <g id="Group_9" data-name="Group 9" transform="translate(0 169.591)">
            <rect id="Rectangle_2" data-name="Rectangle 2" width="80.67" height="118.708" rx="1.946" transform="translate(111.548 50.944) rotate(-8.276)" fill="#f2f4f9"/>
            <path id="Path_30" data-name="Path 30" d="M481.362,306.528l11.033-4.307s10.5-29.071,23.554-10.768c0,0,9.027-5.382,8.748-8.343s-.4-7.268-.4-7.268,18.272,3.948,14.184,29.43-19.7,22.252-35.044,22.521l-19.113,7.536Z" transform="translate(-329.265 -218.997)" fill="#98b2d8"/>
            <path id="Path_31" data-name="Path 31" d="M564.755,370.568s-85.986,56.916-123.133,29.46a149.594,149.594,0,0,1-15.408-13.147L405.54,354.707s18.995-62.374,72.55-102.907l.032-.034c17.753-7.974,36.308-5.071,37.255,11.374,2.271,39.177-31.235,63.265-35.382,81.042l77.072-15.6S569.6,341.885,564.755,370.568Z" transform="translate(-405.54 -247.505)" fill="#c1cfe5"/>
          </g>
          <g id="Group_10" data-name="Group 10" transform="translate(151.527)">
            <path id="Path_32" data-name="Path 32" d="M589.847,244.682s12.287-26.252,7.262-41.381-18.7-8.734-18.7-8.734-6.552-37.847-39.622-21.518c0,0-1.436-11.665-9-9.906s-16.166,21.582-16.166,21.582-5.454-12.423-10.03-8.369-3.6,17.771-13.151,26.288-14.622,18.15-1.143,42.7,7.48,27.62,13.077,40.479c5.316,12.21,9.1,19.534,17.155,18.736s32.254-38.593,32.254-38.593Z" transform="translate(-481.078 -162.962)" fill="#5d7ca0"/>
            <path id="Path_33" data-name="Path 33" d="M489.935,256.17s19.009,46.85,48.888,39.179c10.162-2.608,10.23-13.528,8.945-20.716-1.7-9.378-7.446-19.659-2.808-25.313L513.8,219.206l-6.864-6.646A129.253,129.253,0,0,1,489.935,256.17Z" transform="translate(-472.167 -113.067)" fill="#98b2d8"/>
            <path id="Path_34" data-name="Path 34" d="M536.731,271.305c-1.7-9.378-7.446-19.659-2.808-25.313l-31.155-30.114c-1.627,2.844-2.287,7.476-1.583,14.413C504.832,266.854,525.434,271.56,536.731,271.305Z" transform="translate(-461.131 -109.729)" fill="#799cbf"/>
            <path id="Path_35" data-name="Path 35" d="M576.769,194.781s5.015,62.037-17.165,80.462c-19.275,16.014-52.332-14.93-55.211-32.818,0,0-10.766-5.374-11.422-17.286s12.359-10.411,17.412,8.024c0,0,9.847-2.624,7.222-26.365,7.262,3.988,13.719,1.1,19.616-6.578,0,0,6.018,12.341,21.247-6.345C558.462,193.872,567.086,201.856,576.769,194.781Z" transform="translate(-469.137 -131.863)" fill="#98b2d8"/>
          </g>
        </g>
        <g id="Group_17" data-name="Group 17" transform="translate(465.606 176.932)">
          <g id="Group_12" data-name="Group 12" transform="translate(0 151.235)">
            <path id="Path_36" data-name="Path 36" d="M625.75,484.192v.032a43.219,43.219,0,0,1-3.974,10.431c-15.6,28.523-83.176,23.839-83.176,23.839H384.361c-63.828,0-89.41-1.583-95.517-21.512a25.873,25.873,0,0,1-.839-3.392c-4.329-23.161,17.215-98.52,57.044-150.2,20.383-26.423,41.442-40.344,60.21-47.614a121.064,121.064,0,0,1,44.868-7.847c19.574,0,35.369,1.452,48.775,4.586,35.983,8.425,54.815,28.78,83.048,64.861C616.485,401.467,633.475,453.248,625.75,484.192Z" transform="translate(-287.458 -287.911)" fill="url(#linear-gradient)"/>
            <path id="Path_37" data-name="Path 37" d="M320.872,426.735c16.738-26.324,22-62.841,26.649-99.9l14.537,75.371H488.034l23.149-75.371c-.546,35.227,4.287,69.774,21,102.826C532.18,429.658,449.806,522.871,320.872,426.735Z" transform="translate(-253.844 -248.753)" fill="#1f395e" opacity="0.22"/>
            <path id="Path_38" data-name="Path 38" d="M392.55,432.855h-8.365c-63.828,0-89.41-1.583-95.517-21.512-3.326-15.667.9-32.142,20-37.05,29.911-7.687,81.98,22.611,81.98,22.611Z" transform="translate(-287.276 -202.27)" fill="url(#linear-gradient-2)"/>
            <path id="Path_39" data-name="Path 39" d="M522.756,402.092s.032,0,0,.032a43.216,43.216,0,0,1-3.974,10.431c-15.6,28.523-83.176,23.839-83.176,23.839H389.84l5.817-38.762S476.8,360.064,505.87,371.791C520.08,377.51,524.441,389.4,522.756,402.092Z" transform="translate(-184.464 -205.811)" fill="url(#linear-gradient-3)"/>
            <path id="Path_40" data-name="Path 40" d="M439.829,292.514c-1.358,18.122-8.852,51.134-45.351,51.134-38.473,0-46.613-32.529-48.292-47.873a121.064,121.064,0,0,1,44.868-7.847C410.628,287.928,426.423,289.38,439.829,292.514Z" transform="translate(-228.379 -287.91)" fill="#1f395e"/>
          </g>
          <g id="Group_13" data-name="Group 13" transform="translate(80.86 261.465)">
            <path id="Path_41" data-name="Path 41" d="M486.787,409.332H339.008a6.461,6.461,0,0,1-6.461-6.461h0a6.461,6.461,0,0,1,6.461-6.459H486.787a6.461,6.461,0,0,1,6.461,6.459h0A6.461,6.461,0,0,1,486.787,409.332Z" transform="translate(-322.96 -288.993)" fill="#fff"/>
            <path id="Path_42" data-name="Path 42" d="M509.49,352.1l-.55,3.36v.032l-15.31,94.8H343.008l-15.149-98.261a7.972,7.972,0,0,1,7.849-9.173H501.641a7.956,7.956,0,0,1,7.849,9.238Z" transform="translate(-327.768 -342.862)" fill="url(#linear-gradient-4)"/>
            <path id="Path_43" data-name="Path 43" d="M500.892,349.158l-15.31,94.8H335.768l50.777-5.3A136.569,136.569,0,0,0,500.892,349.158Z" transform="translate(-319.719 -336.528)" fill="#ad1457"/>
          </g>
          <g id="Group_16" data-name="Group 16" transform="translate(94.229)">
            <g id="Group_14" data-name="Group 14" transform="translate(40.214 140.495)">
              <path id="Path_44" data-name="Path 44" d="M385.522,335.306h-1a35.331,35.331,0,0,1-14.535-2.939,26.218,26.218,0,0,1-15.019-24.583c.032-1.065.032-2.1.032-3.131.032-8.626-.518-15.8-.518-15.8V284.98l54.266-2.423a125.356,125.356,0,0,0,2.164,20.319c.032.1.032.16.064.259a26.906,26.906,0,0,1-25.452,32.172Z" transform="translate(-354.479 -282.557)" fill="#feb19e"/>
              <path id="Path_45" data-name="Path 45" d="M410.909,302.876C388.3,329.427,365.075,313.923,355,304.653c.032-8.626-.518-15.8-.518-15.8V284.98l54.266-2.423a125.356,125.356,0,0,0,2.164,20.319Z" transform="translate(-354.479 -282.557)" fill="#ff856a"/>
            </g>
            <g id="Group_15" data-name="Group 15">
              <path id="Path_46" data-name="Path 46" d="M347.279,294.716s16.826,47.431,44.888,47.431,39.718-51.074,39.718-51.074V246.657H345.127Z" transform="translate(-323.673 -178.177)" fill="#feb19e"/>
              <path id="Path_47" data-name="Path 47" d="M345.217,257.275s-8.265,1.513-6.85,11,10.03,21,17.025,14.941Z" transform="translate(-330.638 -167.496)" fill="#feb19e"/>
              <path id="Path_48" data-name="Path 48" d="M394.938,255.3s8.393.375,8.285,9.968-7.079,22.164-14.844,17.117Z" transform="translate(-280.164 -169.482)" fill="#feb19e"/>
              <path id="Path_49" data-name="Path 49" d="M449.206,298.337a221.867,221.867,0,0,1-6.551,27.081s-6.65-1.34-8.8-18.836a23.761,23.761,0,0,1-23.39-10.776s-2.152,13.458-16.016,3.9c-9.244,7.547-20.172,8.341-32.571,3.23,0,0,2.086,17.653-3.837,26.122,0,0-2.152-6.971-9.027-26.76a6.658,6.658,0,0,0-4.838,2.8s-14.866-29.087-7.867-43.074,16.421-8.614,16.421-8.614-3.5-19.111,17.227-26.11,20.726-16.421,23.957-14.535,4.576,8.882,4.576,8.882,35.8-3.769,45.492,34.724c0,0,25.855.826,10.513,44.164C454.49,300.531,453.479,298.738,449.206,298.337Z" transform="translate(-334.432 -212.519)" fill="url(#linear-gradient-5)"/>
            </g>
          </g>
        </g>
        <path id="Path_50" data-name="Path 50" d="M408.632,282.557" transform="translate(300.046 34.869)" fill="#fff" stroke="#0f22d3" stroke-miterlimit="10" stroke-width="1.61"/>
        <g id="Group_19" data-name="Group 19" transform="translate(393.035 303.057)">
          <path id="Path_51" data-name="Path 51" d="M394.532,275.394H259.251a7.97,7.97,0,0,0-7.97,7.968v80.745a7.97,7.97,0,0,0,7.97,7.97h93.316l24.326,21.57a2.389,2.389,0,0,0,3.843-2.57l-6.578-19h20.363a7.97,7.97,0,0,0,7.97-7.97V283.362a7.97,7.97,0,0,0-7.96-7.968Z" transform="translate(-251.281 -275.394)" fill="#9abced" opacity="0.6"/>
          <g id="Group_18" data-name="Group 18" transform="translate(16.646 17.354)">
            <path id="Path_52" data-name="Path 52" d="M292.868,288.294H261.7a2.124,2.124,0,0,1-2.124-2.124h0a2.124,2.124,0,0,1,2.124-2.124h31.165a2.124,2.124,0,0,1,2.124,2.124h0A2.124,2.124,0,0,1,292.868,288.294Z" transform="translate(-259.579 -284.045)" fill="#9abced"/>
            <path id="Path_53" data-name="Path 53" d="M360.838,297.476H270.53a2.126,2.126,0,0,1-2.124-2.126h0a2.124,2.124,0,0,1,2.124-2.124h90.307a2.124,2.124,0,0,1,2.124,2.124h0A2.126,2.126,0,0,1,360.838,297.476Z" transform="translate(-250.699 -274.81)" fill="#9abced"/>
            <path id="Path_54" data-name="Path 54" d="M369.717,304.008H261.7a2.124,2.124,0,0,1-2.124-2.124h0a2.124,2.124,0,0,1,2.124-2.126H369.717a2.124,2.124,0,0,1,2.124,2.126h0a2.124,2.124,0,0,1-2.124,2.124Z" transform="translate(-259.579 -268.239)" fill="#9abced"/>
            <path id="Path_55" data-name="Path 55" d="M369.717,310.54H261.7a2.124,2.124,0,0,1-2.124-2.124h0a2.126,2.126,0,0,1,2.124-2.126H369.717a2.126,2.126,0,0,1,2.124,2.126h0a2.124,2.124,0,0,1-2.124,2.124Z" transform="translate(-259.579 -261.668)" fill="#9abced"/>
            <path id="Path_56" data-name="Path 56" d="M369.717,317.071H261.7a2.124,2.124,0,0,1-2.124-2.124h0a2.124,2.124,0,0,1,2.124-2.124H369.717a2.124,2.124,0,0,1,2.124,2.124h0a2.124,2.124,0,0,1-2.124,2.124Z" transform="translate(-259.579 -255.096)" fill="#9abced"/>
          </g>
        </g>
        <g id="Group_21" data-name="Group 21" transform="translate(150.589 425.189)">
          <rect id="Rectangle_3" data-name="Rectangle 3" width="988.976" height="20.997" rx="1.747" transform="translate(0 133.546)" fill="#c1c8d3"/>
          <g id="Group_20" data-name="Group 20" transform="translate(732.838)">
            <path id="Rectangle_4" data-name="Rectangle 4" d="M0,0H41.991V36.34A15.344,15.344,0,0,1,26.647,51.684h-11.3A15.344,15.344,0,0,1,0,36.34Z" transform="translate(9.693 81.762)" fill="url(#linear-gradient-6)"/>
            <path id="Path_57" data-name="Path 57" d="M518.765,418.04v-11.2a3.33,3.33,0,0,1,3.33-3.332h4.241a3.33,3.33,0,0,0,3.33-3.332v-4.239a3.332,3.332,0,0,0-3.33-3.332H512.7a16.957,16.957,0,0,1-16.959-16.959v0A16.959,16.959,0,0,1,512.7,358.687h18.068a3.332,3.332,0,0,0,3.332-3.332V353.84a17.562,17.562,0,0,1,17.562-17.562h0a17.564,17.564,0,0,1,17.564,17.562h0a18.977,18.977,0,0,1-18.979,18.979H518.462a3.332,3.332,0,0,0-3.332,3.33h0a3.332,3.332,0,0,0,3.332,3.332h17.362a11.609,11.609,0,0,1,11.609,11.609v7.268a11.609,11.609,0,0,1-11.609,11.609h0a3.332,3.332,0,0,0-3.332,3.33v4.744Z" transform="translate(-495.746 -336.278)" fill="url(#linear-gradient-7)"/>
          </g>
        </g>
        <g id="Group_35" data-name="Group 35">
          <g id="Group_25" data-name="Group 25" transform="translate(758.318 284.51)">
            <rect id="Rectangle_5" data-name="Rectangle 5" width="125.572" height="154.643" rx="3.824" transform="translate(0 8.343)" fill="#9abced" opacity="0.6"/>
            <path id="Path_58" data-name="Path 58" d="M555.578,424.021H445.35a9.3,9.3,0,0,1-9.288-9.286v-139.3a9.3,9.3,0,0,1,9.288-9.286H555.578a9.3,9.3,0,0,1,9.286,9.286v139.3a9.3,9.3,0,0,1-9.286,9.286ZM445.35,269.378a6.062,6.062,0,0,0-6.058,6.056v139.3a6.062,6.062,0,0,0,6.058,6.056H555.578a6.062,6.062,0,0,0,6.056-6.056v-139.3a6.062,6.062,0,0,0-6.056-6.056Z" transform="translate(-430.678 -266.148)" fill="#4f7eb7"/>
            <g id="Group_22" data-name="Group 22" transform="translate(18.842 28.485)">
              <path id="Path_59" data-name="Path 59" d="M467.268,309.687h-24.5V280.348h24.5ZM446,306.456h18.038V283.588H446Z" transform="translate(-442.771 -280.348)" fill="#7ca6d8" opacity="0.71"/>
              <path id="Path_60" data-name="Path 60" d="M455.564,299.715l-7.286-8.122,2.407-2.158,4.413,4.931a43.042,43.042,0,0,1,18.128-13.151l1.23,2.985c-12.975,5.344-17.737,13.488-17.781,13.57Z" transform="translate(-437.231 -279.477)" fill="#ea9ba1"/>
              <path id="Path_61" data-name="Path 61" d="M506.391,288.24h-38a2.407,2.407,0,0,1-2.407-2.407h0a2.407,2.407,0,0,1,2.407-2.407h38a2.407,2.407,0,0,1,2.407,2.407h0a2.407,2.407,0,0,1-2.407,2.407Z" transform="translate(-419.421 -277.252)" fill="#9abced"/>
              <path id="Path_62" data-name="Path 62" d="M506.391,294.047h-38a2.407,2.407,0,0,1-2.407-2.407h0a2.407,2.407,0,0,1,2.407-2.407h38a2.407,2.407,0,0,1,2.407,2.407h0a2.407,2.407,0,0,1-2.407,2.407Z" transform="translate(-419.421 -271.41)" fill="#9abced"/>
            </g>
            <g id="Group_23" data-name="Group 23" transform="translate(18.842 73.437)">
              <path id="Path_63" data-name="Path 63" d="M467.268,332.1h-24.5V302.757h24.5ZM446,328.867h18.038V306H446Z" transform="translate(-442.771 -302.757)" fill="#7ca6d8" opacity="0.71"/>
              <path id="Path_64" data-name="Path 64" d="M455.564,322.125,448.278,314l2.407-2.156,4.413,4.931a43.024,43.024,0,0,1,18.128-13.151l1.23,2.983c-12.975,5.344-17.737,13.488-17.781,13.57Z" transform="translate(-437.231 -301.885)" fill="#ea9ba1"/>
              <path id="Path_65" data-name="Path 65" d="M506.391,310.649h-38a2.407,2.407,0,0,1-2.407-2.407h0a2.407,2.407,0,0,1,2.407-2.407h38a2.407,2.407,0,0,1,2.407,2.407h0a2.407,2.407,0,0,1-2.407,2.407Z" transform="translate(-419.421 -299.661)" fill="#9abced"/>
              <path id="Path_66" data-name="Path 66" d="M506.391,316.456h-38a2.407,2.407,0,0,1-2.407-2.407h0a2.407,2.407,0,0,1,2.407-2.407h38a2.407,2.407,0,0,1,2.407,2.407h0a2.407,2.407,0,0,1-2.407,2.407Z" transform="translate(-419.421 -293.819)" fill="#9abced"/>
            </g>
            <g id="Group_24" data-name="Group 24" transform="translate(18.842 118.391)">
              <path id="Path_67" data-name="Path 67" d="M467.268,354.507h-24.5V325.167h24.5ZM446,351.277h18.038V328.4H446Z" transform="translate(-442.771 -325.167)" fill="#7ca6d8" opacity="0.71"/>
              <path id="Path_68" data-name="Path 68" d="M455.564,344.534l-7.286-8.122,2.407-2.158,4.413,4.931a43.041,43.041,0,0,1,18.128-13.151l1.23,2.985c-12.975,5.344-17.737,13.488-17.781,13.57Z" transform="translate(-437.231 -324.296)" fill="#ea9ba1"/>
              <path id="Path_69" data-name="Path 69" d="M506.391,333.059h-38a2.407,2.407,0,0,1-2.407-2.407h0a2.407,2.407,0,0,1,2.407-2.407h38a2.407,2.407,0,0,1,2.407,2.407h0a2.407,2.407,0,0,1-2.407,2.407Z" transform="translate(-419.421 -322.071)" fill="#9abced"/>
              <path id="Path_70" data-name="Path 70" d="M506.391,338.866h-38a2.407,2.407,0,0,1-2.407-2.407h0a2.407,2.407,0,0,1,2.407-2.407h38a2.407,2.407,0,0,1,2.407,2.407h0a2.407,2.407,0,0,1-2.407,2.407Z" transform="translate(-419.421 -316.229)" fill="#9abced"/>
            </g>
          </g>
          <g id="Group_28" data-name="Group 28" transform="translate(1145.547 69.409)">
            <rect id="Rectangle_6" data-name="Rectangle 6" width="125.572" height="154.643" rx="3.824" transform="translate(0 10.425)" fill="#9abced" opacity="0.6"/>
            <path id="Path_71" data-name="Path 71" d="M749.956,316.791H639.728a9.3,9.3,0,0,1-9.286-9.286V168.2a9.3,9.3,0,0,1,9.286-9.286H749.956a9.3,9.3,0,0,1,9.288,9.286V307.5a9.3,9.3,0,0,1-9.288,9.286ZM639.728,162.148a6.064,6.064,0,0,0-6.056,6.056V307.5a6.064,6.064,0,0,0,6.056,6.056H749.956a6.062,6.062,0,0,0,6.056-6.056V168.2a6.062,6.062,0,0,0-6.056-6.056Z" transform="translate(-622.364 -158.918)" fill="#4f7eb7"/>
            <g id="Group_27" data-name="Group 27" transform="translate(11.061 26.172)" opacity="0.5">
              <circle id="Ellipse_1" data-name="Ellipse 1" cx="19.382" cy="19.382" r="19.382" transform="matrix(0.231, -0.973, 0.973, 0.231, 0, 39.959)" fill="#7ca6d8"/>
              <path id="Path_72" data-name="Path 72" d="M646.109,194.98l12.92-23.015c11.835,2.961,17.5,14.132,11.835,25.572Z" transform="translate(-617.664 -171.965)" fill="#e83f54"/>
              <g id="Group_26" data-name="Group 26" transform="translate(5.025 60.296)">
                <path id="Path_73" data-name="Path 73" d="M645.74,207.676a5.653,5.653,0,1,1-5.653-5.653,5.653,5.653,0,0,1,5.653,5.653Z" transform="translate(-634.434 -202.023)" fill="#9abced"/>
                <path id="Path_74" data-name="Path 74" d="M645.74,220.155a5.653,5.653,0,1,1-5.653-5.653,5.653,5.653,0,0,1,5.653,5.653Z" transform="translate(-634.434 -189.469)" fill="#9abced"/>
                <path id="Path_75" data-name="Path 75" d="M702.352,213.329H657.129a5.653,5.653,0,0,1-5.653-5.653h0a5.653,5.653,0,0,1,5.653-5.653h45.223A5.653,5.653,0,0,1,708,207.676h0a5.653,5.653,0,0,1-5.653,5.653Z" transform="translate(-617.29 -202.023)" fill="#9abced"/>
                <path id="Path_76" data-name="Path 76" d="M702.352,225.808H657.129a5.653,5.653,0,0,1-5.653-5.653h0a5.653,5.653,0,0,1,5.653-5.653h45.223A5.653,5.653,0,0,1,708,220.155h0A5.653,5.653,0,0,1,702.352,225.808Z" transform="translate(-617.29 -189.469)" fill="#9abced"/>
                <path id="Path_77" data-name="Path 77" d="M645.74,232.835a5.653,5.653,0,1,1-5.653-5.653,5.653,5.653,0,0,1,5.653,5.653Z" transform="translate(-634.434 -176.714)" fill="#9abced"/>
                <path id="Path_78" data-name="Path 78" d="M702.352,238.49H657.129a5.653,5.653,0,0,1-5.653-5.655h0a5.653,5.653,0,0,1,5.653-5.653h45.223A5.653,5.653,0,0,1,708,232.835h0A5.653,5.653,0,0,1,702.352,238.49Z" transform="translate(-617.29 -176.714)" fill="#9abced"/>
              </g>
            </g>
          </g>
          <g id="Group_30" data-name="Group 30" transform="translate(194.155)">
            <rect id="Rectangle_7" data-name="Rectangle 7" width="125.572" height="180.484" rx="3.824" transform="translate(8.614 8.612)" fill="#9abced" opacity="0.6"/>
            <path id="Path_79" data-name="Path 79" d="M271.653,308.031H161.425a9.3,9.3,0,0,1-9.288-9.286V133.6a9.3,9.3,0,0,1,9.288-9.286H271.653a9.3,9.3,0,0,1,9.286,9.286V298.745A9.3,9.3,0,0,1,271.653,308.031ZM161.425,127.547a6.066,6.066,0,0,0-6.058,6.056V298.745a6.066,6.066,0,0,0,6.058,6.056H271.653a6.064,6.064,0,0,0,6.056-6.056V133.6a6.064,6.064,0,0,0-6.056-6.056Z" transform="translate(-152.137 -124.317)" fill="#4f7eb7"/>
            <g id="Group_29" data-name="Group 29" transform="translate(20.114 32.435)">
              <path id="Rectangle_8" data-name="Rectangle 8" d="M0,0H6.953V24.353A2.423,2.423,0,0,1,4.53,26.776H2.423A2.423,2.423,0,0,1,0,24.353Z" transform="translate(24.204 33.454) rotate(-41.595)" fill="#7ca6d8"/>
              <path id="Path_80" data-name="Path 80" d="M180.737,140.486a18.573,18.573,0,1,0,18.573,18.573,18.573,18.573,0,0,0-18.573-18.573Zm0,31.231A12.658,12.658,0,1,1,193.4,159.059a12.658,12.658,0,0,1-12.658,12.658Z" transform="translate(-162.164 -140.486)" fill="#7ca6d8"/>
              <path id="Path_81" data-name="Path 81" d="M225.335,148.96H195.994a3.364,3.364,0,0,1-3.364-3.364h0a3.364,3.364,0,0,1,3.364-3.366h29.341A3.364,3.364,0,0,1,228.7,145.6h0a3.364,3.364,0,0,1-3.364,3.364Z" transform="translate(-131.516 -138.732)" fill="#9abced"/>
              <path id="Path_82" data-name="Path 82" d="M225.335,157.681H195.994a3.364,3.364,0,0,1-3.364-3.364h0a3.364,3.364,0,0,1,3.364-3.364h29.341a3.364,3.364,0,0,1,3.364,3.364h0a3.364,3.364,0,0,1-3.364,3.364Z" transform="translate(-131.516 -129.956)" fill="#9abced"/>
              <path id="Path_83" data-name="Path 83" d="M225.335,165.738H195.994a3.364,3.364,0,0,1-3.364-3.366h0A3.364,3.364,0,0,1,195.994,159h29.341a3.364,3.364,0,0,1,3.364,3.364h0a3.364,3.364,0,0,1-3.364,3.374Z" transform="translate(-131.516 -121.861)" fill="#9abced"/>
              <path id="Path_84" data-name="Path 84" d="M215.32,188.615H170.1a3.835,3.835,0,0,1-3.835-3.835h0a3.835,3.835,0,0,1,3.835-3.835H215.32a3.835,3.835,0,0,1,3.835,3.835h0a3.835,3.835,0,0,1-3.835,3.835Z" transform="translate(-158.042 -99.786)" fill="#9abced"/>
              <path id="Path_85" data-name="Path 85" d="M215.32,200.593H170.1a3.835,3.835,0,0,1-3.835-3.837h0a3.835,3.835,0,0,1,3.835-3.835H215.32a3.835,3.835,0,0,1,3.835,3.835h0a3.835,3.835,0,0,1-3.835,3.837Z" transform="translate(-158.042 -87.739)" fill="#9abced"/>
              <path id="Path_86" data-name="Path 86" d="M215.32,212.568H170.1a3.835,3.835,0,0,1-3.835-3.835h0A3.835,3.835,0,0,1,170.1,204.9H215.32a3.835,3.835,0,0,1,3.835,3.835h0a3.835,3.835,0,0,1-3.835,3.835Z" transform="translate(-158.042 -75.69)" fill="#9abced"/>
              <path id="Path_87" data-name="Path 87" d="M214.557,185.943a6.158,6.158,0,1,1-6.157-6.156,6.158,6.158,0,0,1,6.157,6.156Z" transform="translate(-121.848 -100.95)" fill="#9abced"/>
              <path id="Path_88" data-name="Path 88" d="M214.557,197.919a6.158,6.158,0,1,1-6.157-6.156,6.158,6.158,0,0,1,6.157,6.156Z" transform="translate(-121.848 -88.902)" fill="#9abced"/>
              <path id="Path_89" data-name="Path 89" d="M214.557,209.9a6.158,6.158,0,1,1-6.158-6.158,6.158,6.158,0,0,1,6.158,6.158Z" transform="translate(-121.848 -76.855)" fill="#9abced"/>
            </g>
          </g>
          <g id="Group_32" data-name="Group 32" transform="translate(644.052 21.903)">
            <rect id="Rectangle_9" data-name="Rectangle 9" width="228.533" height="160.699" rx="6.642" transform="translate(0 9.017)" fill="#9abced" opacity="0.6"/>
            <path id="Path_90" data-name="Path 90" d="M595.923,299.167H394.04A14.959,14.959,0,0,1,379.1,284.228V150.177a14.959,14.959,0,0,1,14.941-14.941H595.923a14.957,14.957,0,0,1,14.939,14.941V284.228A14.956,14.956,0,0,1,595.923,299.167ZM394.04,138.466a11.725,11.725,0,0,0-11.711,11.711V284.228a11.723,11.723,0,0,0,11.711,11.709H595.923a11.721,11.721,0,0,0,11.709-11.709V150.177a11.723,11.723,0,0,0-11.709-11.711Z" transform="translate(-373.715 -135.236)" fill="#4f7eb7"/>
            <g id="Group_31" data-name="Group 31" transform="translate(22.814 30.013)">
              <path id="Path_91" data-name="Path 91" d="M505.485,161.907H393.641a5.851,5.851,0,0,1-5.853-5.853h0a5.853,5.853,0,0,1,5.853-5.855H505.485a5.855,5.855,0,0,1,5.855,5.855h0a5.853,5.853,0,0,1-5.856,5.853Z" transform="translate(-387.788 -150.198)" fill="#9abced" opacity="0.5"/>
              <rect id="Rectangle_10" data-name="Rectangle 10" width="123.552" height="65.411" rx="2.063" transform="translate(0 32.302)" fill="#7ca6d8" opacity="0.71"/>
              <path id="Path_92" data-name="Path 92" d="M495.585,161.907h-33.1a5.853,5.853,0,0,1-5.856-5.853h0a5.855,5.855,0,0,1,5.855-5.855h33.1a5.855,5.855,0,0,1,5.855,5.855h0A5.854,5.854,0,0,1,495.585,161.907Z" transform="translate(-318.533 -150.198)" fill="#9abced" opacity="0.5"/>
              <path id="Path_93" data-name="Path 93" d="M496.429,175.179H461.637A3.633,3.633,0,0,1,458,171.544h0a3.633,3.633,0,0,1,3.633-3.633h34.792a3.633,3.633,0,0,1,3.635,3.633h0a3.635,3.635,0,0,1-3.631,3.635Z" transform="translate(-317.156 -132.379)" fill="#9abced" opacity="0.5"/>
              <path id="Path_94" data-name="Path 94" d="M496.429,183.366H461.637A3.635,3.635,0,0,1,458,179.731h0a3.633,3.633,0,0,1,3.633-3.635h34.792a3.635,3.635,0,0,1,3.635,3.635h0a3.635,3.635,0,0,1-3.631,3.635Z" transform="translate(-317.156 -124.145)" fill="#9abced" opacity="0.5"/>
              <path id="Path_95" data-name="Path 95" d="M496.429,191.54H461.637A3.633,3.633,0,0,1,458,187.915h0a3.633,3.633,0,0,1,3.633-3.633h34.792a3.633,3.633,0,0,1,3.635,3.633h0a3.635,3.635,0,0,1-3.631,3.625Z" transform="translate(-317.156 -115.91)" fill="#9abced" opacity="0.5"/>
              <path id="Path_96" data-name="Path 96" d="M496.429,199.737H461.637A3.635,3.635,0,0,1,458,196.1h0a3.633,3.633,0,0,1,3.633-3.635h34.792a3.635,3.635,0,0,1,3.635,3.635h0a3.635,3.635,0,0,1-3.631,3.635Z" transform="translate(-317.156 -107.676)" fill="#9abced" opacity="0.5"/>
              <path id="Path_97" data-name="Path 97" d="M532.405,216.516H403.6a4.846,4.846,0,0,1-4.846-4.844h0a4.846,4.846,0,0,1,4.846-4.846h128.8a4.846,4.846,0,0,1,4.844,4.846h0A4.844,4.844,0,0,1,532.405,216.516Z" transform="translate(-376.753 -93.232)" fill="#9abced" opacity="0.5"/>
            </g>
          </g>
          <g id="Group_34" data-name="Group 34" transform="translate(0 209.246)">
            <path id="Rectangle_11" data-name="Rectangle 11" d="M10.766,0H201.884a10.768,10.768,0,0,1,10.768,10.768V126.513a10.766,10.766,0,0,1-10.766,10.766H10.766A10.766,10.766,0,0,1,0,126.515V10.766A10.766,10.766,0,0,1,10.766,0Z" transform="translate(9.454 9.552)" fill="#9abced" opacity="0.6"/>
            <path id="Path_98" data-name="Path 98" d="M258.858,369.133H67.732a12.4,12.4,0,0,1-12.383-12.381V241.009a12.4,12.4,0,0,1,12.383-12.381H258.858a12.4,12.4,0,0,1,12.383,12.381V356.754A12.4,12.4,0,0,1,258.858,369.133ZM67.732,231.852A9.163,9.163,0,0,0,58.579,241V356.748a9.161,9.161,0,0,0,9.153,9.149H258.858a9.159,9.159,0,0,0,9.151-9.149V241.009a9.161,9.161,0,0,0-9.151-9.151Z" transform="translate(-55.349 -228.628)" fill="#4f7eb7"/>
            <g id="Group_33" data-name="Group 33" transform="translate(37.857 26.15)" opacity="0.5">
              <path id="Path_99" data-name="Path 99" d="M121.69,288.441a27.412,27.412,0,1,1-10.6-45.319l-8.786,25.969Z" transform="translate(-73.567 -241.664)" fill="#7ca6d8"/>
              <path id="Path_100" data-name="Path 100" d="M115.69,265.343a23.093,23.093,0,0,1-6.82,16.433L92.411,265.343l7.46-22.054a23.283,23.283,0,0,1,15.819,22.054Z" transform="translate(-55.922 -240.03)" fill="#e83f54"/>
              <path id="Path_101" data-name="Path 101" d="M181.756,297.279H118.768V244.1a1.615,1.615,0,1,1,3.23,0v49.949h59.758a1.615,1.615,0,0,1,0,3.23Z" transform="translate(-29.408 -240.839)" fill="#9abced"/>
              <rect id="Rectangle_12" data-name="Rectangle 12" width="8.076" height="24.166" transform="translate(102.552 29.04)" fill="#9abced"/>
              <rect id="Rectangle_13" data-name="Rectangle 13" width="8.076" height="36.427" transform="translate(119.239 16.78)" fill="#e83f54"/>
              <rect id="Rectangle_14" data-name="Rectangle 14" width="8.076" height="18.212" transform="translate(135.66 34.992)" fill="#9abced"/>
              <rect id="Rectangle_15" data-name="Rectangle 15" width="43.608" height="5.653" rx="1.409" transform="translate(0 75.461)" fill="#9abced"/>
              <rect id="Rectangle_16" data-name="Rectangle 16" width="43.606" height="5.653" rx="1.409" transform="translate(57.866 75.461)" fill="#9abced"/>
              <rect id="Rectangle_17" data-name="Rectangle 17" width="43.608" height="5.653" rx="1.409" transform="translate(112.241 75.461)" fill="#9abced"/>
              <path id="Path_102" data-name="Path 102" d="M127.413,295H89.459a2.826,2.826,0,0,1-2.826-2.826h0a2.826,2.826,0,0,1,2.826-2.826h37.953a2.826,2.826,0,0,1,2.826,2.826h0A2.826,2.826,0,0,1,127.413,295Z" transform="translate(-61.735 -193.697)" fill="#9abced"/>
              <path id="Path_103" data-name="Path 103" d="M154.521,295H116.565a2.826,2.826,0,0,1-2.826-2.826h0a2.826,2.826,0,0,1,2.826-2.826h37.955a2.826,2.826,0,0,1,2.826,2.826h0A2.826,2.826,0,0,1,154.521,295Z" transform="translate(-34.467 -193.697)" fill="#9abced"/>
            </g>
          </g>
        </g>
      </g>
    </g>
  </g>
</svg>
