<svg xmlns="http://www.w3.org/2000/svg" xmlns:xlink="http://www.w3.org/1999/xlink" width="1171" height="834.689" viewBox="0 0 1171 834.689">
  <defs>
    <linearGradient id="linear-gradient" x1="0.508" y1="0.868" x2="0.491" y2="0.143" gradientUnits="objectBoundingBox">
      <stop offset="0" stop-color="#3f2323"/>
      <stop offset="1" stop-color="#5e3434"/>
    </linearGradient>
  </defs>
  <g id="download_1_" data-name="download (1)" transform="translate(0 0)">
    <path id="Path_1" data-name="Path 1" d="M1124.08,191.421,652.66,394.045l67.93,187.334,48.549,133.864,12.205,33.668,108.634,41.233,3.928,1.489,113.484,43.056,54.47-23.3,74.21-31.9L1171,764.479Z" fill="#f2f2f2"/>
    <path id="Path_2" data-name="Path 2" d="M1136.44,760.209l-.1,4.856-.27,14.428-74.21,31.9-50.12,21.539-2.11-7.068-2.24,8.827L893.906,791.633l-1.759-41.568v-.01l-.388-9.238,222.311-14.924,4.36,6.68.86,1.327Z" fill="#2f2e41"/>
    <path id="Path_3" data-name="Path 3" d="M989.81,351.248s-14.919,53.71-17.9,53.71,28.347,41.775,28.347,41.775L1046.5,472.1l16.411-68.63s-14.92-37.3-11.936-56.694Z" transform="translate(-14.5 -32.655)" fill="#ff856a"/>
    <path id="Path_26" data-name="Path 26" d="M989.151,351.248s-14.377,53.71-17.252,53.71,27.316,41.775,27.316,41.775l44.568,25.363,15.814-68.63s-14.377-37.3-11.5-56.694Z" transform="translate(-10.181 -26.655)" fill="#feb19e"/>
    <path id="Path_25" data-name="Path 25" d="M55.2,0A55.2,55.2,0,1,1,0,55.2,55.2,55.2,0,0,1,55.2,0Z" transform="translate(943.979 229.076)" fill="#feb19e"/>
    <path id="Path_4" data-name="Path 4" d="M1021.14,431.814l-44.105-38.3L951.02,406.451l-56.694,35.807s14.919,322.262,7.46,334.2c0,0,16.411,37.3,113.389,14.919s122.34-25.363,122.34-25.363l-20.887-196.938,25.363-123.832-85.2-59.575-26.7,46.147Z" transform="translate(-14.5 -32.655)" fill="#1f3a65"/>
    <path id="Path_5" data-name="Path 5" d="M857.026,557.138s-22.379,70.122-5.968,77.582S880.9,639.2,880.9,639.2l25.363-61.17Z" transform="translate(-14.5 -32.655)" fill="#feb19e"/>
    <path id="Path_6" data-name="Path 6" d="M1167.35,545.2l13.428,62.662V734.681s-19.4,80.566-34.315,59.678-14.611-27.5-14.611-27.5l19.087-29.193-8.952-119.356L1118.2,561.372Z" transform="translate(-14.5 -32.655)" fill="#feb19e"/>
    <path id="Path_8" data-name="Path 8" d="M1104.09,524.866l5.4,28.057,52.88-14.029-9.71-25.9Z" fill="#3f3d56"/>
    <path id="Path_9" data-name="Path 9" d="M841.544,523.987l-8.43,27.3,53.263,12.481,3.606-27.424Z" fill="#3f3d56"/>
    <path id="Path_10" data-name="Path 10" d="M1107.67,442.257l34.315,2.984s38.791,105.929,34.315,108.913-58.186,20.887-65.646,16.411S1107.67,442.257,1107.67,442.257Z" transform="translate(-14.5 -32.655)" fill="#1f3a65"/>
    <path id="Path_11" data-name="Path 11" d="M906.26,445.241l-11.936-2.984s-22.379,28.347-29.839,61.17-17.9,65.646-11.936,65.646,59.678,20.888,59.678,20.888Z" transform="translate(-14.5 -32.655)" fill="#1f3a65"/>
    <circle id="Ellipse_2" data-name="Ellipse 2" cx="10.791" cy="10.791" r="10.791" transform="translate(1001.579 398.61)" fill="#3f3d56"/>
    <path id="Path_12" data-name="Path 12" d="M1110.19,632.852,994.922,669.19l-47.05-149.231q66.623-9.342,115.268-36.338C1069.15,534.524,1084.51,584.307,1110.19,632.852Z" transform="translate(-14.5 -32.655)" fill="#e6e6e6"/>
    <path id="Path_13" data-name="Path 13" d="M1099.39,649.039,984.122,685.377,937.081,536.146q66.623-9.342,115.268-36.338C1058.36,550.711,1073.72,600.494,1099.39,649.039Z" transform="translate(-14.5 -32.655)" fill="#fff"/>
    <path id="Path_14" data-name="Path 14" d="M864.486,591.453s-17.9,32.823-13.428,43.267,41.775,16.411,46.251,16.411S955.495,639.2,955.495,639.2s82.057-38.791,58.186-58.186-68.63,26.855-68.63,26.855H909.244l-19.4-13.427Z" transform="translate(-14.5 -32.655)" fill="#feb19e"/>
    <rect id="Rectangle_1" data-name="Rectangle 1" width="195" height="87.167" transform="translate(1 134.833)" fill="#f2f2f2"/>
    <rect id="Rectangle_2" data-name="Rectangle 2" width="34" height="30" transform="translate(676 418)" fill="#3f3d56"/>
    <rect id="Rectangle_3" data-name="Rectangle 3" width="34" height="30" transform="translate(608 418)" fill="#3f3d56"/>
    <path id="Path_27" data-name="Path 27" d="M0,0H34V34H0Z" transform="translate(744 352)" fill="#c2185b"/>
    <rect id="Rectangle_5" data-name="Rectangle 5" width="34" height="32" transform="translate(710 386)" fill="#3f3d56"/>
    <rect id="Rectangle_6" data-name="Rectangle 6" width="34" height="32" transform="translate(642 386)" fill="#3f3d56"/>
    <rect id="Rectangle_7" data-name="Rectangle 7" width="34" height="30" transform="translate(239 446)" fill="#c2185b"/>
    <rect id="Rectangle_8" data-name="Rectangle 8" width="34" height="32" transform="translate(545 414)" fill="#3f3d56"/>
    <rect id="Rectangle_9" data-name="Rectangle 9" width="34" height="32" transform="translate(341 414)" fill="#3f3d56"/>
    <rect id="Rectangle_10" data-name="Rectangle 10" width="34" height="34" transform="translate(307 380)" fill="#3f3d56"/>
    <rect id="Rectangle_11" data-name="Rectangle 11" width="34" height="32" transform="translate(477 414)" fill="#3f3d56"/>
    <rect id="Rectangle_12" data-name="Rectangle 12" width="34" height="34" transform="translate(443 380)" fill="#3f3d56"/>
    <rect id="Rectangle_13" data-name="Rectangle 13" width="34" height="32" transform="translate(409 414)" fill="#3f3d56"/>
    <rect id="Rectangle_14" data-name="Rectangle 14" width="34" height="32" transform="translate(273 414)" fill="#3f3d56"/>
    <path id="Path_28" data-name="Path 28" d="M0,0H34V34H0Z" transform="translate(511 380)" fill="#c2185b"/>
    <path id="Path_15" data-name="Path 15" d="M679.241,360.15l-17.664-18.938,18.938-17.664,17.664,18.938Zm-14.848-18.84,14.946,16.024,16.024-14.946-14.946-16.024Z" transform="translate(-14.5 -32.655)" fill="#3f3d56"/>
    <path id="Path_16" data-name="Path 16" d="M440.16,282.239h-25.9v-25.9h25.9Zm-23.9-1.992h21.913V258.334H416.255Z" transform="translate(-14.5 -32.655)" fill="#3f3d56"/>
    <path id="Path_17" data-name="Path 17" d="M921.16,232.239h-25.9v-25.9h25.9Zm-23.9-1.992h21.913V208.334H897.255Z" transform="translate(-14.5 -32.655)" fill="#3f3d56"/>
    <path id="Path_18" data-name="Path 18" d="M268.931,496.723l-1.531-1.494a78.184,78.184,0,0,0,15.68-27.432c5.2-15.66,7.746-40.392-9.7-69.282-17.847-29.559-18.65-53.568-16.182-68.5,2.687-16.252,9.54-25.361,9.831-25.741l1.7,1.3c-.068.089-6.863,9.15-9.441,24.917-2.38,14.557-1.55,37.984,15.923,66.922,17.889,29.629,15.239,55.048,9.866,71.154C279.259,486.013,269.351,496.294,268.931,496.723Z" transform="translate(-14.5 -32.655)" fill="#3f3d56"/>
    <path id="Path_19" data-name="Path 19" d="M538.931,428.723l-1.531-1.494a78.184,78.184,0,0,0,15.68-27.432c5.2-15.66,7.746-40.392-9.7-69.282-17.847-29.559-18.65-53.568-16.182-68.5,2.687-16.252,9.54-25.361,9.831-25.741l1.7,1.3c-.068.089-6.863,9.15-9.441,24.917-2.38,14.557-1.55,37.984,15.923,66.922,17.889,29.629,15.239,55.048,9.866,71.154C549.259,418.013,539.351,428.294,538.931,428.723Z" transform="translate(-14.5 -32.655)" fill="#3f3d56"/>
    <path id="Path_20" data-name="Path 20" d="M773.931,402.723l-1.531-1.494a78.182,78.182,0,0,0,15.68-27.432c5.2-15.66,7.746-40.392-9.7-69.282-17.847-29.559-18.65-53.568-16.182-68.5,2.687-16.252,9.54-25.361,9.831-25.741l1.7,1.3c-.068.089-6.863,9.15-9.441,24.917-2.38,14.557-1.55,37.984,15.923,66.922,17.889,29.629,15.239,55.048,9.866,71.154C784.259,392.013,774.351,402.294,773.931,402.723Z" transform="translate(-14.5 -32.655)" fill="#3f3d56"/>
    <rect id="Rectangle_16" data-name="Rectangle 16" width="94.111" height="2.139" transform="translate(51.444 162.347)" fill="#3f3d56"/>
    <rect id="Rectangle_17" data-name="Rectangle 17" width="94.111" height="2.139" transform="translate(51.444 177.347)" fill="#3f3d56"/>
    <rect id="Rectangle_18" data-name="Rectangle 18" width="94.111" height="2.139" transform="translate(51.444 192.347)" fill="#3f3d56"/>
    <rect id="Rectangle_19" data-name="Rectangle 19" width="94.111" height="2.139" transform="translate(578.444 19.347)" fill="#3f3d56"/>
    <rect id="Rectangle_20" data-name="Rectangle 20" width="94.111" height="2.139" transform="translate(578.444 34.347)" fill="#3f3d56"/>
    <rect id="Rectangle_21" data-name="Rectangle 21" width="94.111" height="2.139" transform="translate(578.444 49.347)" fill="#3f3d56"/>
    <rect id="Rectangle_22" data-name="Rectangle 22" width="94.111" height="2.139" transform="translate(799.444 351.347)" fill="#3f3d56"/>
    <rect id="Rectangle_23" data-name="Rectangle 23" width="94.111" height="2.139" transform="translate(799.444 366.347)" fill="#3f3d56"/>
    <rect id="Rectangle_24" data-name="Rectangle 24" width="94.111" height="2.139" transform="translate(799.444 381.347)" fill="#3f3d56"/>
    <rect id="Rectangle_25" data-name="Rectangle 25" width="94.111" height="2.139" transform="translate(208.444 501.347)" fill="#3f3d56"/>
    <rect id="Rectangle_26" data-name="Rectangle 26" width="94.111" height="2.139" transform="translate(208.444 516.347)" fill="#3f3d56"/>
    <rect id="Rectangle_27" data-name="Rectangle 27" width="94.111" height="2.139" transform="translate(208.444 531.347)" fill="#3f3d56"/>
    <path id="Path_21" data-name="Path 21" d="M152.36,143.276C168.62,106.8,193.127,82.81,225.2,71.965c23.813-8.053,51.352-8.814,81.851-2.263A218.889,218.889,0,0,1,371,94.543c105.882,61.45,171.342,62,207.612,51.634,39.769-11.362,54.323-38.022,54.465-38.29l1.767.937c-.146.275-15.031,27.633-55.6,39.254-23.391,6.7-50.721,6.976-81.231.822C460.042,141.24,416.972,123.534,370,96.273a216.9,216.9,0,0,0-63.367-24.616c-50.023-10.745-117.077-6.9-152.446,72.433Z" transform="translate(-14.5 -32.655)" fill="#2f2e41"/>
    <circle id="Ellipse_3" data-name="Ellipse 3" cx="36" cy="36" r="36" transform="translate(220 201)" fill="#3f3d56"/>
    <circle id="Ellipse_4" data-name="Ellipse 4" cx="36" cy="36" r="36" transform="translate(492 138)" fill="#3f3d56"/>
    <circle id="Ellipse_5" data-name="Ellipse 5" cx="36" cy="36" r="36" transform="translate(727 106)" fill="#3f3d56"/>
    <path id="Path_22" data-name="Path 22" d="M237.5,255.655H14.5v-114h223Zm-221-2h219v-110H16.5Z" transform="translate(-14.5 -32.655)" fill="#3f3d56"/>
    <rect id="Rectangle_28" data-name="Rectangle 28" width="195" height="87.167" transform="translate(282 59.833)" fill="#f2f2f2"/>
    <rect id="Rectangle_29" data-name="Rectangle 29" width="94.111" height="2.139" transform="translate(332.444 87.347)" fill="#3f3d56"/>
    <rect id="Rectangle_30" data-name="Rectangle 30" width="94.111" height="2.139" transform="translate(332.444 102.347)" fill="#3f3d56"/>
    <rect id="Rectangle_31" data-name="Rectangle 31" width="94.111" height="2.139" transform="translate(329.444 114.347)" fill="#3f3d56"/>
    <path id="Path_23" data-name="Path 23" d="M518.5,180.655h-223v-114h223Zm-221-2h219v-110h-219Z" transform="translate(-14.5 -32.655)" fill="#3f3d56"/>
    <rect id="Rectangle_32" data-name="Rectangle 32" width="195" height="87.167" transform="translate(785 25.833)" fill="#f2f2f2"/>
    <rect id="Rectangle_33" data-name="Rectangle 33" width="94.111" height="2.139" transform="translate(835.444 53.347)" fill="#3f3d56"/>
    <rect id="Rectangle_34" data-name="Rectangle 34" width="94.111" height="2.139" transform="translate(835.444 68.347)" fill="#3f3d56"/>
    <rect id="Rectangle_35" data-name="Rectangle 35" width="94.111" height="2.139" transform="translate(835.444 83.347)" fill="#3f3d56"/>
    <path id="Path_24" data-name="Path 24" d="M1021.5,146.655h-223v-114h223Zm-221-2h219v-110h-219Z" transform="translate(-14.5 -32.655)" fill="#3f3d56"/>
    <path id="Path_49" data-name="Path 49" d="M461.831,298.337c-1.792,9.155-6.442,19.733-9.493,28.614,0,0-5.16-2.873-7.549-20.369-10.252,1.311-20.407-2.9-25.963-10.776,0,0-2.389,13.458-17.778,3.9-10.26,7.547-22.391,8.341-36.154,3.23,0,0,2.316,17.653-4.26,26.122,0,0-2.389-6.971-10.02-26.76a7.591,7.591,0,0,0-5.371,2.8s-16.5-29.087-8.733-43.074,18.227-8.614,18.227-8.614-3.885-19.111,19.122-26.11,23.006-16.421,26.593-14.535,5.079,8.882,5.079,8.882,39.739-3.769,50.5,34.724c0,0,28.7.826,11.67,44.164C467.7,300.531,466.574,298.738,461.831,298.337Z" transform="translate(600.831 -38.46)" fill="url(#linear-gradient)"/>
  </g>
</svg>
