<svg id="xczzzzzzzzzzzzzzzzzzzzzzssadsad" xmlns="http://www.w3.org/2000/svg" xmlns:xlink="http://www.w3.org/1999/xlink" width="891" height="711.05" viewBox="0 0 891 711.05">
  <defs>
    <linearGradient id="linear-gradient" x1="0.5" y1="1" x2="0.5" gradientUnits="objectBoundingBox">
      <stop offset="0" stop-color="gray" stop-opacity="0.251"/>
      <stop offset="0.54" stop-color="gray" stop-opacity="0.122"/>
      <stop offset="1" stop-color="gray" stop-opacity="0.102"/>
    </linearGradient>
    <linearGradient id="linear-gradient-10" x1="0.516" y1="0.999" x2="0.516" y2="-0.001" xlink:href="#linear-gradient"/>
    <linearGradient id="linear-gradient-11" x1="1.221" y1="1.356" x2="1.221" y2="0.356" xlink:href="#linear-gradient"/>
    <linearGradient id="linear-gradient-12" x1="1.26" y1="1.627" x2="1.26" y2="0.627" xlink:href="#linear-gradient"/>
    <linearGradient id="linear-gradient-13" x1="0.506" y1="0.964" x2="0.506" y2="0.023" xlink:href="#linear-gradient"/>
    <linearGradient id="linear-gradient-14" xlink:href="#linear-gradient"/>
    <linearGradient id="linear-gradient-15" x1="0.498" x2="0.498" y2="0.007" xlink:href="#linear-gradient"/>
    <linearGradient id="linear-gradient-16" xlink:href="#linear-gradient"/>
    <linearGradient id="linear-gradient-21" xlink:href="#linear-gradient"/>
    <linearGradient id="linear-gradient-25" y1="Infinity" y2="Infinity" xlink:href="#linear-gradient"/>
    <linearGradient id="linear-gradient-28" x1="0" y1="0.5" x2="1" y2="0.5" xlink:href="#linear-gradient"/>
  </defs>
  <ellipse id="Ellipse_1" data-name="Ellipse 1" cx="67" cy="17" rx="67" ry="17" transform="translate(303 677.05)" fill="#f2f2f2"/>
  <ellipse id="Ellipse_2" data-name="Ellipse 2" cx="67" cy="17" rx="67" ry="17" transform="translate(308 489.05)" fill="#f2f2f2"/>
  <ellipse id="Ellipse_3" data-name="Ellipse 3" cx="67" cy="17" rx="67" ry="17" transform="translate(0 497.05)" fill="#f2f2f2"/>
  <rect id="Rectangle_1" data-name="Rectangle 1" width="383" height="14.5" transform="translate(22.62 4)" fill="#f5f5f5"/>
  <rect id="Rectangle_2" data-name="Rectangle 2" width="396" height="486" transform="translate(15.62)" fill="url(#linear-gradient)"/>
  <rect id="Rectangle_3" data-name="Rectangle 3" width="383" height="459.5" transform="translate(43.62 0.5)" fill="#fff"/>
  <circle id="Ellipse_4" data-name="Ellipse 4" cx="3.5" cy="3.5" r="3.5" transform="translate(27 8)" fill="#ff5252"/>
  <circle id="Ellipse_5" data-name="Ellipse 5" cx="3.5" cy="3.5" r="3.5" transform="translate(36.62 8)" fill="#ff0"/>
  <circle id="Ellipse_6" data-name="Ellipse 6" cx="3.5" cy="3.5" r="3.5" transform="translate(46.25 8)" fill="#69f0ae"/>
  <g id="Group_1" data-name="Group 1" opacity="0.2">
    <rect id="Rectangle_4" data-name="Rectangle 4" width="149" height="9" transform="translate(33.62 36)" fill="#6c63ff"/>
  </g>
  <rect id="Rectangle_5" data-name="Rectangle 5" width="149" height="9" transform="translate(139.62 73)" fill="#f5f5f5"/>
  <rect id="Rectangle_6" data-name="Rectangle 6" width="149" height="9" transform="translate(33.62 363)" fill="#6c63ff" opacity="0.5"/>
  <rect id="Rectangle_7" data-name="Rectangle 7" width="50" height="11" transform="translate(202.62 362)" fill="url(#linear-gradient)"/>
  <rect id="Rectangle_8" data-name="Rectangle 8" width="50" height="11" transform="translate(202.62 418)" fill="url(#linear-gradient)"/>
  <rect id="Rectangle_9" data-name="Rectangle 9" width="50" height="11" transform="translate(304.62 418)" fill="url(#linear-gradient)"/>
  <rect id="Rectangle_10" data-name="Rectangle 10" width="47" height="9" transform="translate(204.62 363)" fill="#6c63ff"/>
  <rect id="Rectangle_11" data-name="Rectangle 11" width="47" height="9" transform="translate(204.62 419)" fill="#6c63ff"/>
  <rect id="Rectangle_12" data-name="Rectangle 12" width="47" height="9" transform="translate(305.62 419)" fill="#6c63ff"/>
  <rect id="Rectangle_13" data-name="Rectangle 13" width="149" height="9" transform="translate(33.62 391)" fill="#f5f5f5"/>
  <rect id="Rectangle_14" data-name="Rectangle 14" width="149" height="9" transform="translate(204.62 391)" fill="#6c63ff" opacity="0.5"/>
  <rect id="Rectangle_15" data-name="Rectangle 15" width="149" height="9" transform="translate(204.62 447)" fill="#f5f5f5"/>
  <rect id="Rectangle_16" data-name="Rectangle 16" width="149" height="9" transform="translate(33.62 419)" fill="#6c63ff" opacity="0.5"/>
  <rect id="Rectangle_17" data-name="Rectangle 17" width="149" height="9" transform="translate(33.62 447)" fill="#f5f5f5"/>
  <rect id="Rectangle_18" data-name="Rectangle 18" width="84" height="9" transform="translate(139.62 88)" fill="#f5f5f5"/>
  <rect id="Rectangle_19" data-name="Rectangle 19" width="29" height="9" transform="translate(238.62 88)" fill="#f5f5f5"/>
  <rect id="Rectangle_20" data-name="Rectangle 20" width="84" height="9" transform="translate(139.62 118)" fill="#f5f5f5"/>
  <rect id="Rectangle_21" data-name="Rectangle 21" width="29" height="9" transform="translate(238.62 118)" fill="#f5f5f5"/>
  <rect id="Rectangle_22" data-name="Rectangle 22" width="149" height="9" transform="translate(139.62 103)" fill="#f5f5f5"/>
  <g id="Group_2" data-name="Group 2" opacity="0.2">
    <rect id="Rectangle_23" data-name="Rectangle 23" width="149" height="9" transform="translate(243.62 36)" fill="#6c63ff"/>
  </g>
  <rect id="Rectangle_24" data-name="Rectangle 24" width="18" height="11" transform="translate(327.62 72)" fill="url(#linear-gradient)"/>
  <rect id="Rectangle_25" data-name="Rectangle 25" width="18" height="11" transform="translate(327.62 87)" fill="url(#linear-gradient)"/>
  <rect id="Rectangle_26" data-name="Rectangle 26" width="18" height="11" transform="translate(327.62 102)" fill="url(#linear-gradient)"/>
  <rect id="Rectangle_27" data-name="Rectangle 27" width="16" height="9" transform="translate(328.62 73)" fill="#e91e63"/>
  <rect id="Rectangle_28" data-name="Rectangle 28" width="16" height="9" transform="translate(328.62 88)" fill="#ff9800"/>
  <rect id="Rectangle_29" data-name="Rectangle 29" width="16" height="9" transform="translate(328.62 103)" fill="#00ff82"/>
  <rect id="Rectangle_30" data-name="Rectangle 30" width="18" height="11" transform="translate(327.62 117)" fill="url(#linear-gradient)"/>
  <rect id="Rectangle_31" data-name="Rectangle 31" width="16" height="9" transform="translate(328.62 118)" fill="#6c63ff"/>
  <rect id="Rectangle_32" data-name="Rectangle 32" width="367" height="150" transform="translate(30.62 182)" fill="url(#linear-gradient)"/>
  <rect id="Rectangle_33" data-name="Rectangle 33" width="359" height="142" transform="translate(33.62 185)" fill="#6c63ff" opacity="0.5"/>
  <path id="Path_1" data-name="Path 1" d="M44.62,196h348V185h-359V327h11Z" fill="#fff" opacity="0.5"/>
  <rect id="Rectangle_34" data-name="Rectangle 34" width="370" height="152" transform="translate(32.476 206.11) rotate(-5.2)" fill="url(#linear-gradient-10)"/>
  <rect id="Rectangle_35" data-name="Rectangle 35" width="359" height="142" transform="translate(38.81 209.538) rotate(-5.2)" fill="#fff"/>
  <path id="Path_2" data-name="Path 2" d="M220,420.07l-6.2-78.77s32-34,96.6-8.8,95.06,7.41,105.56-9.61,65-36,82.66-7.53,38.84-3.54,38.84-3.54l7.16,78.67Z" transform="translate(-154.5 -94.48)" fill="#6c63ff" opacity="0.5"/>
  <line id="Line_1" data-name="Line 1" x2="0.54" y2="5.98" transform="translate(98.03 229.66)" fill="none" stroke="#6c63ff" stroke-miterlimit="10" stroke-width="1"/>
  <line id="Line_2" data-name="Line 2" x2="5.74" y2="63.06" transform="translate(99.62 247.1)" fill="none" stroke="#6c63ff" stroke-miterlimit="10" stroke-width="1" stroke-dasharray="11.51 11.51"/>
  <line id="Line_3" data-name="Line 3" x2="0.55" y2="5.97" transform="translate(105.88 315.89)" fill="none" stroke="#6c63ff" stroke-miterlimit="10" stroke-width="1"/>
  <line id="Line_4" data-name="Line 4" x2="0.55" y2="5.97" transform="translate(159.52 239.42)" fill="none" stroke="#6c63ff" stroke-miterlimit="10" stroke-width="1"/>
  <line id="Line_5" data-name="Line 5" x2="4.15" y2="45.51" transform="translate(161.25 258.4)" fill="none" stroke="#6c63ff" stroke-miterlimit="10" stroke-width="1" stroke-dasharray="13.06 13.06"/>
  <line id="Line_6" data-name="Line 6" x2="0.54" y2="5.98" transform="translate(165.99 310.41)" fill="none" stroke="#6c63ff" stroke-miterlimit="10" stroke-width="1"/>
  <line id="Line_7" data-name="Line 7" x2="0.6" y2="5.97" transform="translate(222.26 250.1)" fill="none" stroke="#6c63ff" stroke-miterlimit="10" stroke-width="1"/>
  <line id="Line_8" data-name="Line 8" x2="3.38" y2="34.1" transform="translate(223.83 265.82)" fill="none" stroke="#6c63ff" stroke-miterlimit="10" stroke-width="1" stroke-dasharray="9.79 9.79"/>
  <line id="Line_9" data-name="Line 9" x2="0.59" y2="5.98" transform="translate(227.7 304.79)" fill="none" stroke="#6c63ff" stroke-miterlimit="10" stroke-width="1"/>
  <line id="Line_10" data-name="Line 10" x2="0.54" y2="5.98" transform="translate(278.65 214.84)" fill="none" stroke="#6c63ff" stroke-miterlimit="10" stroke-width="1"/>
  <line id="Line_11" data-name="Line 11" x2="5.63" y2="61.79" transform="translate(280.21 232.05)" fill="none" stroke="#6c63ff" stroke-miterlimit="10" stroke-width="1" stroke-dasharray="11.28 11.28"/>
  <line id="Line_12" data-name="Line 12" x2="0.55" y2="5.98" transform="translate(286.35 299.45)" fill="none" stroke="#6c63ff" stroke-miterlimit="10" stroke-width="1"/>
  <line id="Line_13" data-name="Line 13" x2="0.54" y2="5.97" transform="translate(319.35 206.59)" fill="none" stroke="#6c63ff" stroke-miterlimit="10" stroke-width="1"/>
  <line id="Line_14" data-name="Line 14" x2="5.95" y2="65.33" transform="translate(320.97 224.44)" fill="none" stroke="#6c63ff" stroke-miterlimit="10" stroke-width="1" stroke-dasharray="11.93 11.93"/>
  <line id="Line_15" data-name="Line 15" x2="0.55" y2="5.97" transform="translate(327.46 295.71)" fill="none" stroke="#6c63ff" stroke-miterlimit="10" stroke-width="1"/>
  <circle id="Ellipse_7" data-name="Ellipse 7" cx="5" cy="5" r="5" transform="translate(92.407 224.749) rotate(-5.2)" fill="#ff9800"/>
  <path id="Path_84" data-name="Path 84" d="M5,0A5,5,0,1,1,0,5,5,5,0,0,1,5,0Z" transform="translate(153.607 235.249) rotate(-5.2)" fill="#e91e63"/>
  <circle id="Ellipse_9" data-name="Ellipse 9" cx="5" cy="5" r="5" transform="translate(216.811 245.558) rotate(-5.2)" fill="#00ff82"/>
  <circle id="Ellipse_10" data-name="Ellipse 10" cx="7" cy="7" r="7" transform="translate(270.674 208.524) rotate(-5.2)" fill="url(#linear-gradient-11)"/>
  <circle id="Ellipse_11" data-name="Ellipse 11" cx="7" cy="7" r="7" transform="translate(312.137 200.739) rotate(-5.2)" fill="url(#linear-gradient-12)"/>
  <circle id="Ellipse_12" data-name="Ellipse 12" cx="5" cy="5" r="5" transform="translate(272.847 210.335) rotate(-5.2)" fill="#6c63ff"/>
  <circle id="Ellipse_13" data-name="Ellipse 13" cx="5" cy="5" r="5" transform="translate(314.31 202.549) rotate(-5.2)" fill="#6c63ff"/>
  <circle id="Ellipse_14" data-name="Ellipse 14" cx="5" cy="5" r="5" transform="translate(377.684 214.855) rotate(-5.2)" fill="#00ff82"/>
  <g id="Group_3" data-name="Group 3" opacity="0.2">
    <path id="Path_3" data-name="Path 3" d="M547.76,413.2l.07.23C548.6,413,547.76,413.2,547.76,413.2Z" transform="translate(-154.5 -94.48)" fill="url(#linear-gradient-13)"/>
  </g>
  <g id="Group_4" data-name="Group 4" opacity="0.2">
    <path id="Path_4" data-name="Path 4" d="M539.48,581.18l16.28-2.63-2.24-10h0v-.14h-.06l-11.54-53V476.76a14.283,14.283,0,0,0-.08-1.47c17.24-22.86,7-58.73,6-61.86-.18.09-.45.21-.83.36a21.059,21.059,0,0,0-.79-4.13s-5-3.18-7.73.91c-2.38,3.57-.61,5.75-.12,6.26l-.34.11a11.52,11.52,0,0,1,1.58,3.94,8.643,8.643,0,0,0-.54-1c-.63-.11-1-.21-1-.21l-.12-.11-.34.11c1.73,2.53,2.34,7,2.26,12.3a17.363,17.363,0,0,0-2-2.31,17.65,17.65,0,0,0-11.7-4.88h-.83a10.354,10.354,0,0,0-1.36.09h-.34l-.57.08-.65.12-.47.1-.81.22-.3.09c-.34.11-.67.22-1,.35a17.244,17.244,0,0,1-3.43,1.24,1.668,1.668,0,0,0-.49.05h0a5.72,5.72,0,0,1-3.75-1.07l-.36-.28a5.3,5.3,0,0,1-.39-.37,2.54,2.54,0,0,0-.17,1.09,3.35,3.35,0,0,0,1.17,2.27,3.169,3.169,0,0,0,.62.42,2.68,2.68,0,0,0,1.06.3h.29c-.23.11-.46.21-.7.3h-.05c-.26.09-.51.17-.78.24h0a8.68,8.68,0,0,1-4,.06h0l-.43-.1c-.21-.06-.43-.12-.63-.19a4.789,4.789,0,0,0,.22.44l.08.13.18.28.11.14.2.25.12.13.25.25.1.09.37.31.13.09.27.19.18.11.24.14.2.1.25.11.21.09.28.1.35.1.26.07h1.74a5,5,0,0,0,1.5-.37l-.92.38h0l-.46.16-.47.17-.47.14-.48.14-.47.12-.5.12-.46.09-.53.09-.44.07-.57.07h-2.4a4.211,4.211,0,0,1,1.51.8,4,4,0,0,0,.93.5,3.586,3.586,0,0,0,.45.1H512a6.54,6.54,0,0,1,2.59.83,4.651,4.651,0,0,1,1.11,1c-.14.23-.28.45-.4.69s-.21.4-.31.61a12.453,12.453,0,0,0-.53,1.27,14.08,14.08,0,0,0-.86,4.85v1.16a3.31,3.31,0,0,0,.08.72v.19q.06.44.16.87v.17q.08.36.18.71l.06.21a14.013,14.013,0,0,0,.61,1.66l.07.16q.17.37.35.72v.07q.22.4.46.79v.06q.22.36.47.7l.06.08a14.173,14.173,0,0,0,1.17,1.41h0a14.14,14.14,0,0,0,3.77,2.83,6.276,6.276,0,0,0-.11.65h0a6.349,6.349,0,0,0,0,.68v5.28q-.45.24-.88.51c-12.53-5.69-31.19-46-31.19-46h-.45c1.82-1.36,0-7.28,0-7.28a8.54,8.54,0,0,0-3.5-1.16H483.3l-.2.06H483l-.3.11h0l-.28.13-.1.05-.19.11L482,411l-.18.12-.11.09-.17.14-.11.1-.17.16-.1.11-.17.2-.08.1-.25.34c-2.73,4.09,0,6.37,0,6.37a40.738,40.738,0,0,0-.25,4.75c-.2,29.46,31.33,52.29,32.94,53.43-.71,1.84-6.57,18.14.07,38.49a.648.648,0,0,0,.08.14,59.08,59.08,0,0,0-17.72,55.88l.13.61h.29a4.005,4.005,0,0,1-.11.4,4.6,4.6,0,0,1-.29.7,5.432,5.432,0,0,1-.73,1.07h0c-.31.36-.67.72-1.05,1.09l-.4.38c-1.59,1.52-3.2,3-2,3.6h17.21v-7.51h.3s-.12-.23-.3-.68V571h-.06c-.9-2.32-3-9.5.36-20.56,4.09-13.65,20-20.47,20-20.47l.29,1h-.06l12.48,41a1.668,1.668,0,0,1-.05.49,6.675,6.675,0,0,1-.27,1.14,7.236,7.236,0,0,1-.34.84c-.77,1.59-2.1,3.46-2.68,4.86a4.708,4.708,0,0,0-.21.59,1.82,1.82,0,0,0-.07.7.81.81,0,0,0,.53.67h.23l.48-.08Zm-4.82-116.73q-.47-.26-1-.49V459a6.319,6.319,0,0,0-.11-1.13,14.111,14.111,0,0,0,3-1.93c-.6,3.06-1.27,5.99-1.88,8.51Z" transform="translate(-154.5 -94.48)" fill="url(#linear-gradient-14)"/>
  </g>
  <path id="Path_5" data-name="Path 5" d="M480.38,423.09s-3-2.52,0-7.06,8.57-1,8.57-1,2,6.55,0,8.06S480.38,423.09,480.38,423.09Z" transform="translate(-154.5 -94.48)" fill="#ca7070"/>
  <path id="_Path_" data-name="&lt;Path&gt;" d="M511.54,591.75H497.65a4.56,4.56,0,0,1-1.31,3.57c-1.87,2.16-5.63,4.77-3.86,5.66h19.06Z" transform="translate(-154.5 -94.48)" fill="#00695c"/>
  <path id="Path_6" data-name="Path 6" d="M497.35,595.32a4.56,4.56,0,0,0,1.31-3.57h-1a4.56,4.56,0,0,1-1.31,3.57c-1.87,2.16-5.63,4.77-3.86,5.66h1C491.72,600.09,495.48,597.49,497.35,595.32Z" transform="translate(-154.5 -94.48)" fill="#fff" opacity="0.2"/>
  <path id="_Path_2" data-name="&lt;Path&gt;" d="M561,588.89,548,591a6.62,6.62,0,0,1-.59,4.58c-1.42,3-4.61,6.74-2.69,7.55l18.82-3Z" transform="translate(-154.5 -94.48)" fill="#00695c"/>
  <path id="Path_7" data-name="Path 7" d="M554.66,416.94s14.87,46.91-10.07,72.88l-7.2-5.51s14.74-51.2,6.49-63.22C558.44,416.24,554.66,416.94,554.66,416.94Z" transform="translate(-154.5 -94.48)" fill="#00695c"/>
  <path id="Path_8" data-name="Path 8" d="M544.38,421.08s-3-2.52,0-7.06,8.57-1,8.57-1,2,6.55,0,8.06S544.38,421.08,544.38,421.08Z" transform="translate(-154.5 -94.48)" fill="#ca7070"/>
  <path id="Path_9" data-name="Path 9" d="M548.41,595.59A6.62,6.62,0,0,0,549,591l12-2v-.16L548,591a6.62,6.62,0,0,1-.59,4.58c-1.42,3-4.61,6.74-2.69,7.55l.79-.13C544.08,602,547.05,598.41,548.41,595.59Z" transform="translate(-154.5 -94.48)" fill="#fff" opacity="0.2"/>
  <path id="Path_80" data-name="Path 80" d="M7.055,0A7.055,7.055,0,0,1,14.11,7.055v6.8a7.055,7.055,0,1,1-14.11,0v-6.8A7.055,7.055,0,0,1,7.055,0Z" transform="translate(370.48 366.16)" fill="#feb19e"/>
  <path id="Path_10" data-name="Path 10" d="M538.4,487.33s14.56-50.57,6.63-63c-.7-.13-1.15-.23-1.15-.23l-.13-.12-.37.12c8.25,12-6.49,63.22-6.49,63.22l7.2,5.51.63-.68Z" transform="translate(-154.5 -94.48)" fill="#fff" opacity="0.2"/>
  <path id="Path_81" data-name="Path 81" d="M15.62,0A15.62,15.62,0,1,1,0,15.62,15.62,15.62,0,0,1,15.62,0Z" transform="translate(362.17 342.23)" fill="#feb19e"/>
  <path id="Path_11" data-name="Path 11" d="M526.74,474.5v-6.8a7,7,0,0,1,.16-1.48,15.62,15.62,0,0,1,6.26-29.49h-.88a15.62,15.62,0,0,0-7.15,29.51,7,7,0,0,0-.16,1.48v6.8a7,7,0,0,0,7.94,7,7.08,7.08,0,0,1-6.17-7.02Z" transform="translate(-154.5 -94.48)" fill="#fff" opacity="0.2"/>
  <path id="Path_12" data-name="Path 12" d="M548.16,530.18s-30.13,3.4-31.24,0c-7.81-23.94,0-42.83,0-42.83a15.62,15.62,0,0,1,15.62-15.62h0a15.62,15.62,0,0,1,15.62,15.62Z" transform="translate(-154.5 -94.48)" fill="#00695c"/>
  <path id="Path_13" data-name="Path 13" d="M548.16,530.18l13.61,62.49H548.16l-14.11-46.36s-17.64,7.56-22.17,22.68,0,23.68,0,23.68H497.26l-.15-.68a65,65,0,0,1,19.8-61.81h0" transform="translate(-154.5 -94.48)" fill="#263238"/>
  <path id="Path_14" data-name="Path 14" d="M518.68,530.18c-7.81-23.94,0-42.83,0-42.83a15.621,15.621,0,0,1,14.613-15.59h-1a15.62,15.62,0,0,0-15.62,15.62s-7.81,18.9,0,42.83c.4,1.22,4.52,1.56,9.64,1.51C522.15,531.63,519,531.23,518.68,530.18Z" transform="translate(-154.5 -94.48)" fill="#fff" opacity="0.2"/>
  <path id="Path_15" data-name="Path 15" d="M516.67,487.09s-40.31-28.22-36.28-64h9.07S511.12,470,525,474.5,516.67,487.09,516.67,487.09Z" transform="translate(-154.5 -94.48)" fill="#00695c"/>
  <g id="Group_5" data-name="Group 5" opacity="0.2">
    <path id="Path_16" data-name="Path 16" d="M534.31,547.41l13.85,45.51h2l-14.11-46.36S535.4,546.84,534.31,547.41Z" transform="translate(-154.5 -94.48)" fill="#fff"/>
    <path id="Path_17" data-name="Path 17" d="M518.93,530.43h-2a65,65,0,0,0-19.8,61.81l.15.68h2l-.15-.68A65,65,0,0,1,518.93,530.43Z" transform="translate(-154.5 -94.48)" fill="#fff"/>
  </g>
  <path id="Path_18" data-name="Path 18" d="M481.9,423.6h-1.51c-4,35.78,36.28,64,36.28,64l1-.38C513,483.77,478.13,457,481.9,423.6Z" transform="translate(-154.5 -94.48)" fill="#fff" opacity="0.2"/>
  <path id="Path_19" data-name="Path 19" d="M519.83,445.35a25.852,25.852,0,0,1,1.82,6.29c1,4.38,3.26,8.75,7.15,11a15.87,15.87,0,0,0,7,1.91c3.72.23,7.75-.49,10.38-3.13a12.86,12.86,0,0,0,3.17-6.39,21.63,21.63,0,0,0-5.69-19.88,19.19,19.19,0,0,0-20-4.19,19.1,19.1,0,0,1-3.79,1.38,6.31,6.31,0,0,1-5.53-1.84,3.49,3.49,0,0,0,3.37,4.52,9.73,9.73,0,0,1-7.46.4,6.33,6.33,0,0,0,8,3.19,21.32,21.32,0,0,1-9,1.84c.65,0,1.92,1.2,2.71,1.44a17.183,17.183,0,0,0,3,.21,5.82,5.82,0,0,1,4.87,3.25Z" transform="translate(-154.5 -94.48)" fill="#5e3434"/>
  <g id="Group_6" data-name="Group 6" opacity="0.2">
    <path id="Path_20" data-name="Path 20" d="M517.75,435a9.631,9.631,0,0,1-3.7.95,9.7,9.7,0,0,0,4.71-.95,3.53,3.53,0,0,1-3.54-3.81,5.94,5.94,0,0,1-.84-.71,3.49,3.49,0,0,0,3.37,4.52Z" transform="translate(-154.5 -94.48)" fill="#fff"/>
    <path id="Path_21" data-name="Path 21" d="M520.91,432.35a19.1,19.1,0,0,0,3.79-1.38,17.38,17.38,0,0,1,6-1.21,17.561,17.561,0,0,0-7,1.21,19.1,19.1,0,0,1-3.79,1.38,1.661,1.661,0,0,0-.54.06,6,6,0,0,0,1.54-.06Z" transform="translate(-154.5 -94.48)" fill="#fff"/>
    <path id="Path_22" data-name="Path 22" d="M512.92,441.9c-.79-.23-2.06-1.42-2.71-1.44a21.32,21.32,0,0,0,9-1.84,5.579,5.579,0,0,1-2,.42,21.33,21.33,0,0,1-8,1.42c.65,0,1.92,1.2,2.71,1.44a6.71,6.71,0,0,0,2.1.17A4.379,4.379,0,0,1,512.92,441.9Z" transform="translate(-154.5 -94.48)" fill="#fff"/>
    <path id="Path_23" data-name="Path 23" d="M536.83,464.56a15.869,15.869,0,0,1-7-1.91c-3.89-2.27-6.11-6.64-7.15-11a25.855,25.855,0,0,0-1.82-6.29,5.82,5.82,0,0,0-4.93-3.23,10.07,10.07,0,0,0-1.5,0h.49a5.82,5.82,0,0,1,4.93,3.23,25.849,25.849,0,0,1,1.82,6.29c1,4.38,3.26,8.75,7.15,11a15.87,15.87,0,0,0,7,1.91h1.01Z" transform="translate(-154.5 -94.48)" fill="#fff"/>
    <path id="Path_24" data-name="Path 24" d="M516.58,439a6.38,6.38,0,0,1-5.12-3.27,9.325,9.325,0,0,1-1.17-.33,6.38,6.38,0,0,0,6.29,3.6Z" transform="translate(-154.5 -94.48)" fill="#fff"/>
  </g>
  <path id="Path_25" data-name="Path 25" d="M481.39,423.09s-3-2.52,0-7.06a4.83,4.83,0,0,1,3.74-2.29,4.9,4.9,0,0,0-4.74,2.29c-3,4.54,0,7.06,0,7.06a27.325,27.325,0,0,0,5.93.66,29.828,29.828,0,0,1-4.93-.66Z" transform="translate(-154.5 -94.48)" fill="#fff" opacity="0.2"/>
  <g id="Group_7" data-name="Group 7" opacity="0.2">
    <path id="Path_26" data-name="Path 26" d="M191.47,423.33l.08-.27S190.53,422.86,191.47,423.33Z" transform="translate(-154.5 -94.48)" fill="url(#linear-gradient-15)"/>
  </g>
  <g id="Group_8" data-name="Group 8" opacity="0.2">
    <path id="Path_27" data-name="Path 27" d="M285.7,440.09a6.587,6.587,0,0,0-.36-.93c0-.1-.1-.18-.15-.27a5.611,5.611,0,0,0-.3-.52l-.2-.26a5.063,5.063,0,0,0-.33-.39l-.23-.23q-.18-.165-.36-.3l-.25-.18-.4-.24-.25-.13-.45-.19-.23-.09a5.523,5.523,0,0,0-.65-.18h0a10.33,10.33,0,0,0-4.39.12s-4.19,6.18-2.58,8.4l-.53-.16s-31.13,34.74-48.69,41.19q-.67-.46-1.39-.86v-6.5a7.664,7.664,0,0,0,0-.82h0a7.6,7.6,0,0,0-.13-.77l.13-.07.52-.29.75-.46.48-.31a9.967,9.967,0,0,0,1-.78l.39-.34q.36-.3.69-.63l.4-.39q.42-.43.8-.88l.28-.34q.36-.45.69-.92l.28-.42q.3-.46.57-.94l.18-.31a13.683,13.683,0,0,0,.61-1.28l.16-.39q.21-.53.39-1.07a1.855,1.855,0,0,1,.12-.38c.14-.47.27-.94.37-1.43a.6.6,0,0,1,.05-.29q.12-.61.19-1.24v-.42c0-.51.08-1,.08-1.55a17,17,0,0,0-3.781-10.692c1.331-2.078,2.2-3.308,2.2-3.308-.8-.55-1.59-1.05-2.37-1.54l-.76-.45c-.52-.31-1-.62-1.56-.9l-.87-.46c-.47-.25-.93-.49-1.39-.71l-.89-.41-1.33-.58-.87-.35c-.44-.17-.88-.33-1.31-.48l-.82-.28c-.45-.14-.9-.27-1.34-.39l-.73-.2c-.5-.12-1-.22-1.49-.32l-.53-.11c-.67-.12-1.33-.21-2-.27h0a23.709,23.709,0,0,0-12,1.84c.2-4.78,1-8.72,2.68-11.16l-.41-.14-.14.14s-.49.11-1.26.25a10.443,10.443,0,0,0-.65,1.21,13.91,13.91,0,0,1,1.91-4.76l-.41-.14c.59-.61,2.73-3.24-.14-7.55-3.3-4.94-9.34-1.1-9.34-1.1a25.56,25.56,0,0,0-.94,5c-.46-.19-.79-.33-1-.44a124.5,124.5,0,0,0-4.69,31.36c-10.89,15.46-15.39,38.28-16.27,43.2h0l-.07.39h0c-.06.36-.09.55-.09.55l28.31.66v45.12L178,588.22s7.84.25,19.64,1.76l-3.26,23.31h0l-1.09,6.54h19.62c2.18-4.36-8.72-6.54-8.72-6.54h-.24l4.25-21.75q2.82.47,5.8,1a56.817,56.817,0,0,0,8.83,1h0a46.933,46.933,0,0,0,7.35-.32c1.44,11.79-.45,18.83-.81,20h-.11l-1.09,6.54h19.62c1.9-3.8-6.14-5.95-8.23-6.43l.09-.64a109.413,109.413,0,0,0,.77-22.2,26.87,26.87,0,0,0,7-4.17h0l.27-.24h0l.08-.08-14.61-41c2.73-11.6-6.77-23.78-1.7-29.87s2-13.86,1.4-15.19c13.72-6,41.45-21,49.23-47a49.171,49.171,0,0,0,1.39-5.57S287.4,445.78,285.7,440.09Z" transform="translate(-154.5 -94.48)" fill="url(#linear-gradient-16)"/>
  </g>
  <path id="Path_28" data-name="Path 28" d="M194.58,430.94s-14.87,46.91,10.07,72.88l7.2-5.51s-14.74-51.2-6.49-63.22C190.8,430.24,194.58,430.94,194.58,430.94Z" transform="translate(-154.5 -94.48)" fill="#ff5252"/>
  <path id="Path_29" data-name="Path 29" d="M204.86,435.08s3-2.52,0-7.06-8.57-1-8.57-1-2,6.55,0,8.06S204.86,435.08,204.86,435.08Z" transform="translate(-154.5 -94.48)" fill="#f6b9ad"/>
  <rect id="Rectangle_37" data-name="Rectangle 37" width="14.11" height="20.91" rx="7.055" transform="translate(69.76 401.07) rotate(180)" fill="#f6b9ad"/>
  <path id="Path_30" data-name="Path 30" d="M210.84,501.33s-14.56-50.57-6.63-63c.7-.13,1.15-.23,1.15-.23l.13-.12.37.12c-8.25,12,6.49,63.22,6.49,63.22l-7.2,5.51-.63-.68Z" transform="translate(-154.5 -94.48)" fill="#fff" opacity="0.2"/>
  <circle id="Ellipse_16" data-name="Ellipse 16" cx="15.62" cy="15.62" r="15.62" transform="translate(46.83 356.23)" fill="#f6b9ad"/>
  <path id="Path_31" data-name="Path 31" d="M222.5,488.5v-6.8a7,7,0,0,0-.16-1.48,15.62,15.62,0,0,0-6.26-29.49h.88a15.62,15.62,0,0,1,7.15,29.51,7,7,0,0,1,.16,1.48v6.8a7,7,0,0,1-7.94,7,7.08,7.08,0,0,0,6.17-7.02Z" transform="translate(-154.5 -94.48)" fill="#fff" opacity="0.2"/>
  <path id="Path_32" data-name="Path 32" d="M201.08,544.18s30.13,3.4,31.24,0c3.6-11-6-22.89-1.2-28.7,5-6,1.2-14.13,1.2-14.13a15.62,15.62,0,0,0-15.62-15.62h0a15.62,15.62,0,0,0-15.62,15.62Z" transform="translate(-154.5 -94.48)" fill="#ff5252"/>
  <path id="Path_33" data-name="Path 33" d="M231.16,515.48c5-6,1.2-14.13,1.2-14.13a15.62,15.62,0,0,0-15.62-15.62,6.64,6.64,0,0,0-1,.05,15.61,15.61,0,0,1,14.62,15.57s3.8,8.13-1.2,14.13c-4.84,5.81,4.8,17.69,1.2,28.7-.34,1.05-3.45,1.45-7.58,1.51,5.09.05,9.19-.29,9.58-1.51C236,533.16,226.32,521.29,231.16,515.48Z" transform="translate(-154.5 -94.48)" fill="#fff" opacity="0.2"/>
  <path id="Path_34" data-name="Path 34" d="M225.93,543.18h0c11,15.59,15.87,39.15,12.72,61.81l-.09.68h-9.39s2.91-8.57,0-23.68a37.39,37.39,0,0,0-14.24-22.68l-9.06,46.36h-8.74l8.74-62.49Z" transform="translate(-154.5 -94.48)" fill="#f6b9ad"/>
  <path id="Path_35" data-name="Path 35" d="M278.89,453.31s3.63-1.52,2.07-6.75-7.9-3.47-7.9-3.47-3.85,5.67-2.36,7.71S278.89,453.31,278.89,453.31Z" transform="translate(-154.5 -94.48)" fill="#f6b9ad"/>
  <path id="Path_36" data-name="Path 36" d="M225.44,503.87s46.81-15.17,53.44-50.56l-8.67-2.66s-34.45,38.46-49,38.73S225.44,503.87,225.44,503.87Z" transform="translate(-154.5 -94.48)" fill="#ff5252"/>
  <path id="Path_37" data-name="Path 37" d="M277.29,453.35l1.45.44c-6.63,35.39-53.44,50.56-53.44,50.56l-.83-.65C230,501.78,271.11,486.36,277.29,453.35Z" transform="translate(-154.5 -94.48)" fill="#fff" opacity="0.2"/>
  <g id="Group_9" data-name="Group 9" opacity="0.2">
    <path id="Path_38" data-name="Path 38" d="M212.92,559.31l-9.06,46.36h2l8.8-45a21.629,21.629,0,0,0-1.74-1.36Z" transform="translate(-154.5 -94.48)" fill="#fff"/>
    <path id="Path_39" data-name="Path 39" d="M225.93,543.18h-2c11,15.59,15.87,39.15,12.72,61.81l-.09.68h2l.09-.68C241.8,582.33,236.95,558.77,225.93,543.18Z" transform="translate(-154.5 -94.48)" fill="#fff"/>
  </g>
  <path id="Path_40" data-name="Path 40" d="M277.92,453s3.63-1.52,2.07-6.75a4.83,4.83,0,0,0-2.9-3.29,4.9,4.9,0,0,1,3.86,3.58c1.56,5.22-2.07,6.75-2.07,6.75a27.321,27.321,0,0,1-5.86-1.1A29.831,29.831,0,0,0,277.92,453Z" transform="translate(-154.5 -94.48)" fill="#fff" opacity="0.2"/>
  <path id="Path_41" data-name="Path 41" d="M201.08,542.48l-19,40a234.993,234.993,0,0,1,33,4c21,4,31-6,31-6l-13.55-38Z" transform="translate(-154.5 -94.48)" fill="#263238"/>
  <path id="Path_42" data-name="Path 42" d="M206.12,605.48s10,2,8,6h-18l1-6Z" transform="translate(-154.5 -94.48)" fill="#ff5252"/>
  <path id="Path_43" data-name="Path 43" d="M238.12,605.48s10,2,8,6h-18l1-6Z" transform="translate(-154.5 -94.48)" fill="#ff5252"/>
  <path id="Path_44" data-name="Path 44" d="M231.12,453.48s-24,34-13,48l-43-1S187.12,423.48,231.12,453.48Z" transform="translate(-154.5 -94.48)" fill="#fccc63"/>
  <path id="Path_45" data-name="Path 45" d="M231.12,453.48c-6.2-4.23-11.76-6.33-16.75-6.82a42.331,42.331,0,0,1,11.75,5.82s-24,34-13,48l-37.85-.88c-.1.57-.15.88-.15.88l43,1C207.12,487.48,231.12,453.48,231.12,453.48Z" transform="translate(-154.5 -94.48)" fill="#fff" opacity="0.2"/>
  <path id="Path_46" data-name="Path 46" d="M232.58,542.48h-3l13.55,38s-6.46,6.45-19.9,6.91c15.47.5,22.9-6.91,22.9-6.91Z" transform="translate(-154.5 -94.48)" fill="#fff" opacity="0.2"/>
  <path id="Path_47" data-name="Path 47" d="M206.12,605.48h-2s10,2,8,6h2C216.12,607.48,206.12,605.48,206.12,605.48Z" transform="translate(-154.5 -94.48)" fill="#fff" opacity="0.2"/>
  <path id="Path_48" data-name="Path 48" d="M238.12,605.48h-2s10,2,8,6h2C248.12,607.48,238.12,605.48,238.12,605.48Z" transform="translate(-154.5 -94.48)" fill="#fff" opacity="0.2"/>
  <rect id="Rectangle_38" data-name="Rectangle 38" width="383" height="14.5" transform="translate(500.62 167.68)" fill="#f5f5f5"/>
  <rect id="Rectangle_39" data-name="Rectangle 39" width="398" height="496" transform="translate(493 163.05)" fill="url(#linear-gradient)"/>
  <rect id="Rectangle_40" data-name="Rectangle 40" width="383" height="459.5" transform="translate(500.62 182.18)" fill="#fff"/>
  <circle id="Ellipse_17" data-name="Ellipse 17" cx="3.5" cy="3.5" r="3.5" transform="translate(506 171.68)" fill="#ff5252"/>
  <circle id="Ellipse_18" data-name="Ellipse 18" cx="3.5" cy="3.5" r="3.5" transform="translate(515.62 171.68)" fill="#ff0"/>
  <circle id="Ellipse_19" data-name="Ellipse 19" cx="3.5" cy="3.5" r="3.5" transform="translate(525.25 171.68)" fill="#69f0ae"/>
  <g id="Group_10" data-name="Group 10" opacity="0.2">
    <rect id="Rectangle_41" data-name="Rectangle 41" width="336" height="9" transform="translate(524.62 202.68)" fill="#6c63ff"/>
  </g>
  <rect id="Rectangle_42" data-name="Rectangle 42" width="145" height="154" transform="translate(522.62 241.68)" fill="url(#linear-gradient)"/>
  <rect id="Rectangle_43" data-name="Rectangle 43" width="139" height="144" transform="translate(525.62 246.68)" fill="#fff"/>
  <rect id="Rectangle_44" data-name="Rectangle 44" width="145" height="154" transform="translate(715.62 318.68)" fill="url(#linear-gradient)"/>
  <rect id="Rectangle_45" data-name="Rectangle 45" width="139" height="144" transform="translate(718.62 323.68)" fill="#fff"/>
  <rect id="Rectangle_46" data-name="Rectangle 46" width="341" height="106" transform="translate(525.62 508.68)" fill="url(#linear-gradient)"/>
  <rect id="Rectangle_47" data-name="Rectangle 47" width="328" height="95" transform="translate(532.62 515.68)" fill="#6c63ff" opacity="0.5"/>
  <path id="Path_49" data-name="Path 49" d="M540.62,524.68h320v-9h-328v95h8Z" fill="#fff" opacity="0.5"/>
  <path id="Path_50" data-name="Path 50" d="M796.09,372.71a62,62,0,1,0,15,40.45,62,62,0,0,0-15-40.45Zm-25,77.47a24.5,24.5,0,1,1,.03,0Z" transform="translate(-154.5 -94.48)" fill="url(#linear-gradient-21)"/>
  <path id="Path_51" data-name="Path 51" d="M780.17,386.42l13.65-11.75a58.85,58.85,0,0,0-44.7-20.51v18a40.91,40.91,0,0,1,31.05,14.26Z" transform="translate(-154.5 -94.48)" fill="#e91e63"/>
  <path id="Path_52" data-name="Path 52" d="M749.12,454.15a40.739,40.739,0,0,1-16.92-3.67l-7.43,16.41a59,59,0,0,0,54.49-3l-9.2-15.49a40.74,40.74,0,0,1-20.94,5.75Z" transform="translate(-154.5 -94.48)" fill="#69f0ae"/>
  <path id="Path_53" data-name="Path 53" d="M808.12,413.15a58.75,58.75,0,0,0-14.3-38.49l-13.65,11.75a40.93,40.93,0,0,1-10.11,62l9.2,15.49a59,59,0,0,0,28.86-50.75Z" transform="translate(-154.5 -94.48)" fill="#ff9800"/>
  <path id="Path_54" data-name="Path 54" d="M708.12,413.15a41,41,0,0,1,41-41v-18a59,59,0,0,0-24.35,112.74l7.43-16.41a41,41,0,0,1-24.08-37.33Z" transform="translate(-154.5 -94.48)" fill="#6c63ff"/>
  <rect id="Rectangle_48" data-name="Rectangle 48" width="106" height="18" transform="translate(737.62 344.68)" fill="url(#linear-gradient)"/>
  <rect id="Rectangle_49" data-name="Rectangle 49" width="104" height="16" transform="translate(738.62 345.68)" fill="#6c63ff"/>
  <rect id="Rectangle_50" data-name="Rectangle 50" width="76" height="16" transform="translate(738.62 372.68)" fill="#ff5252"/>
  <rect id="Rectangle_51" data-name="Rectangle 51" width="52" height="16" transform="translate(738.62 399.68)" fill="#69f0ae"/>
  <rect id="Rectangle_52" data-name="Rectangle 52" width="94" height="16" transform="translate(738.62 426.68)" fill="#ff9800"/>
  <rect id="Rectangle_53" data-name="Rectangle 53" width="149" height="9" transform="translate(525.62 419.68)" fill="#f5f5f5"/>
  <rect id="Rectangle_54" data-name="Rectangle 54" width="84" height="9" transform="translate(525.62 434.68)" fill="#f5f5f5"/>
  <rect id="Rectangle_55" data-name="Rectangle 55" width="29" height="9" transform="translate(624.62 434.68)" fill="#f5f5f5"/>
  <rect id="Rectangle_56" data-name="Rectangle 56" width="29" height="9" transform="translate(624.62 467.68)" fill="#f5f5f5"/>
  <rect id="Rectangle_57" data-name="Rectangle 57" width="84" height="9" transform="translate(525.62 464.68)" fill="#f5f5f5"/>
  <rect id="Rectangle_58" data-name="Rectangle 58" width="149" height="9" transform="translate(525.62 449.68)" fill="#f5f5f5"/>
  <rect id="Rectangle_59" data-name="Rectangle 59" width="149" height="9" transform="translate(713.62 242.68)" fill="#f5f5f5"/>
  <rect id="Rectangle_60" data-name="Rectangle 60" width="84" height="9" transform="translate(713.62 257.68)" fill="#f5f5f5"/>
  <rect id="Rectangle_61" data-name="Rectangle 61" width="29" height="9" transform="translate(812.62 257.68)" fill="#f5f5f5"/>
  <rect id="Rectangle_62" data-name="Rectangle 62" width="29" height="9" transform="translate(812.62 290.68)" fill="#f5f5f5"/>
  <rect id="Rectangle_63" data-name="Rectangle 63" width="84" height="9" transform="translate(713.62 287.68)" fill="#f5f5f5"/>
  <rect id="Rectangle_64" data-name="Rectangle 64" width="149" height="9" transform="translate(713.62 272.68)" fill="#f5f5f5"/>
  <circle id="Ellipse_20" data-name="Ellipse 20" cx="11" cy="11" r="11" transform="translate(749.62 677.68)" fill="url(#linear-gradient)"/>
  <circle id="Ellipse_21" data-name="Ellipse 21" cx="8" cy="8" r="8" transform="translate(752.62 680.68)" fill="#e91e63"/>
  <rect id="Rectangle_65" data-name="Rectangle 65" width="344" height="121" transform="translate(435.62 566.68)" fill="url(#linear-gradient)"/>
  <rect id="Rectangle_66" data-name="Rectangle 66" width="328" height="95" transform="translate(445.62 571.68)" fill="#fff"/>
  <path id="Path_75" data-name="Path 75" d="M0,0H304" transform="translate(456.62 648.68)" stroke="#1f3a65" stroke-width="3" fill="url(#linear-gradient-25)"/>
  <rect id="Rectangle_67" data-name="Rectangle 67" width="45" height="55" transform="translate(459.62 590.68)" fill="url(#linear-gradient)"/>
  <path id="Path_74" data-name="Path 74" d="M0,0H40V51H0Z" transform="translate(462.12 593.18)" fill="#1f3a65"/>
  <rect id="Rectangle_69" data-name="Rectangle 69" width="40" height="16" transform="translate(712.62 629.68)" fill="#69f0ae"/>
  <rect id="Rectangle_70" data-name="Rectangle 70" width="40" height="36" transform="translate(637.62 608.68)" fill="#ff9800"/>
  <path id="Path_77" data-name="Path 77" d="M0,0H40V30H0Z" transform="translate(549.62 614.68)" fill="#e91e63"/>
  <path id="Path_76" data-name="Path 76" d="M0,0H328V14H0Z" transform="translate(445.62 666.68)" fill="#e91e63"/>
  <circle id="Ellipse_22" data-name="Ellipse 22" cx="11" cy="11" r="11" transform="translate(448.62 677.68)" fill="url(#linear-gradient)"/>
  <circle id="Ellipse_23" data-name="Ellipse 23" cx="8" cy="8" r="8" transform="translate(451.62 680.68)" fill="#e91e63"/>
  <path id="Path_79" data-name="Path 79" d="M0,0H8V105H0Z" transform="translate(437.62 575.68)" fill="#e91e63"/>
  <path id="Path_55" data-name="Path 55" d="M600.65,681.32v-.81a.48.48,0,0,0-.06-.31,3.426,3.426,0,0,1-.12-.44c-.05-.14-.06-.19-.1-.29s-.12-.28-.18-.42l-.12-.25c-.08-.14-.17-.28-.26-.41l-.13-.19a6.6,6.6,0,0,0-.42-.52h0a9.62,9.62,0,0,0-2.79-2.06,8.05,8.05,0,0,0,1.79-3.08,6.421,6.421,0,0,0,.24-.94v-.29a5.459,5.459,0,0,0,.05-.58v-.81a.48.48,0,0,0-.06-.31,3.426,3.426,0,0,1-.12-.44c-.05-.14-.06-.19-.1-.29s-.12-.28-.18-.42l-.12-.25c-.08-.14-.17-.28-.26-.41l-.13-.19a6.628,6.628,0,0,0-.42-.52h0a10.071,10.071,0,0,0-3.55-2.4s-6.35,2.35-6.77,4.93c-4.66,1-31.82,6.65-50.47,6.2l-.14-.37a16.59,16.59,0,0,0-8.83-14.67V654.5a7.458,7.458,0,0,0,0-.8h0a7.415,7.415,0,0,0-.12-.76l.12-.07.51-.28.74-.45.47-.31q.52-.36,1-.76l.38-.33c.23-.2.45-.4.67-.61l.39-.38q.41-.42.78-.86l.27-.34q.35-.44.67-.9l.27-.41q.29-.45.56-.92l.17-.3c.22-.4.42-.82.6-1.24l.15-.38q.21-.51.38-1l.12-.37c.14-.46.26-.92.36-1.39a.557.557,0,0,1,.05-.28q.11-.6.18-1.21v-.41c0-.5.08-1,.08-1.51a16.509,16.509,0,0,0-2.129-8.109c1.069-.261,1.719-.471,1.639-.571-.41-.55-.82-1.07-1.25-1.57l-.41-.47c-.3-.34-.59-.66-.89-1l-.48-.49c-.3-.3-.6-.58-.9-.85l-.47-.42q-.57-.48-1.14-.93l-.25-.2c-.46-.34-.92-.66-1.39-1l-.52-.32c-.3-.19-.61-.37-.92-.53l-.62-.32-.86-.41-.63-.28c-.3-.13-.61-.24-.92-.35l-.57-.21c-.46-.15-.92-.29-1.38-.41l-.71-.16-.77-.16-.77-.12-.71-.08-.79-.07h-1.47q-.65,0-1.3.06h0c-10.23.84-19.19,9.77-19.19,24V655h16v5.34a16.59,16.59,0,0,0-9.64,15.05V720.9l-13.58,62.39H489l-2.67,11.91,19.16,3.1h0l.83.13c2-.86-1.35-4.89-2.86-8a8.544,8.544,0,0,1-.4-1,7.57,7.57,0,0,1-.38-1.94L517.4,739.2h-.07l.35-1.13s18.74,8,23.56,24.09c3.91,13,1.48,21.46.42,24.2h-.07v.16c-.21.52-.36.81-.36.81h.36v8.83h20.26c1.88-.95-2.11-3.72-4.1-6a5.668,5.668,0,0,1-1.32-2.55h.34l.16-.72a69.53,69.53,0,0,0-20.86-65.77.767.767,0,0,0,.09-.17,74.451,74.451,0,0,0,3.51-18.06c15.49,1.48,36.1.42,51.51-11.52a47.993,47.993,0,0,0,4.21-3.58c1.33-.1,3.66-.84,4.95-4.6a6.41,6.41,0,0,0,.24-.94v-.29a5.455,5.455,0,0,0,.07-.64Z" transform="translate(-154.5 -94.48)" fill="url(#linear-gradient-28)"/>
  <path id="Path_56" data-name="Path 56" d="M519.49,698.94s46.9,14.91,72.88-10l-5.51-7.21s-50.4,11.23-62.41,3S519.49,698.94,519.49,698.94Z" transform="translate(-154.5 -94.48)" fill="#1f3a65"/>
  <path id="Path_57" data-name="Path 57" d="M591.05,688l.92,1.2c-26,24.92-72.88,10-72.88,10s-.12-.38-.3-1C524.38,699.87,566.81,711.28,591.05,688Z" transform="translate(-154.5 -94.48)" fill="#fff" opacity="0.2"/>
  <path id="Path_58" data-name="Path 58" d="M591.37,688.93s3.84.87,5.61-4.28-4.4-7.42-4.4-7.42-6.43,2.37-6.41,4.89S591.37,688.93,591.37,688.93Z" transform="translate(-154.5 -94.48)" fill="#feb19e"/>
  <path id="Path_59" data-name="Path 59" d="M590.76,688.12s3.84.87,5.61-4.28a4.83,4.83,0,0,0-.45-4.36,4.9,4.9,0,0,1,1.06,5.16c-1.77,5.16-5.61,4.28-5.61,4.28a27.319,27.319,0,0,1-4.12-4.31A29.834,29.834,0,0,0,590.76,688.12Z" transform="translate(-154.5 -94.48)" fill="#fff" opacity="0.2"/>
  <path id="_Path_3" data-name="&lt;Path&gt;" d="M541.7,781.75h13.89a4.56,4.56,0,0,0,1.31,3.57c1.87,2.16,5.63,4.77,3.86,5.66H541.7Z" transform="translate(-154.5 -94.48)" fill="#294a7a"/>
  <path id="Path_60" data-name="Path 60" d="M555.89,785.32a4.56,4.56,0,0,1-1.31-3.57h1a4.56,4.56,0,0,0,1.31,3.57c1.87,2.16,5.63,4.77,3.86,5.66h-1C561.52,790.09,557.76,787.49,555.89,785.32Z" transform="translate(-154.5 -94.48)" fill="#fff" opacity="0.2"/>
  <path id="_Path_4" data-name="&lt;Path&gt;" d="M492.23,778.89l13,2.13a6.62,6.62,0,0,0,.59,4.58c1.42,3,4.61,6.74,2.69,7.55l-18.82-3Z" transform="translate(-154.5 -94.48)" fill="#294a7a"/>
  <path id="Path_61" data-name="Path 61" d="M504.83,785.59a6.62,6.62,0,0,1-.59-4.58l-12.05-2v-.16l13,2.13a6.62,6.62,0,0,0,.59,4.58c1.42,3,4.61,6.74,2.69,7.55l-.79-.13C509.16,792,506.19,788.41,504.83,785.59Z" transform="translate(-154.5 -94.48)" fill="#fff" opacity="0.2"/>
  <path id="Path_83" data-name="Path 83" d="M7.055,0A7.055,7.055,0,0,1,14.11,7.055v6.8a7.055,7.055,0,1,1-14.11,0v-6.8A7.055,7.055,0,0,1,7.055,0Z" transform="translate(373.76 577.07) rotate(180)" fill="#ff856a"/>
  <path id="Path_82" data-name="Path 82" d="M15.62,0A15.62,15.62,0,1,1,0,15.62,15.62,15.62,0,0,1,15.62,0Z" transform="translate(350.83 532.23)" fill="#feb19e"/>
  <path id="Path_62" data-name="Path 62" d="M526.5,664.5v-6.8a7,7,0,0,0-.16-1.48,15.62,15.62,0,0,0-6.26-29.49h.88a15.62,15.62,0,0,1,7.15,29.51,7,7,0,0,1,.16,1.48v6.8a7,7,0,0,1-7.94,7,7.08,7.08,0,0,0,6.17-7.02Z" transform="translate(-154.5 -94.48)" fill="#fff" opacity="0.2"/>
  <path id="Path_63" data-name="Path 63" d="M505.08,720.18s30.13,3.4,31.24,0c7.81-23.94,0-42.83,0-42.83a15.62,15.62,0,0,0-15.62-15.62h0a15.62,15.62,0,0,0-15.62,15.62Z" transform="translate(-154.5 -94.48)" fill="#1f3a65"/>
  <path id="Path_64" data-name="Path 64" d="M505.08,720.18l-13.61,62.49h13.61l14.11-46.36s17.64,7.56,22.17,22.68,0,23.68,0,23.68H556l.15-.68a65,65,0,0,0-19.8-61.81h0" transform="translate(-154.5 -94.48)" fill="#263238"/>
  <path id="Path_65" data-name="Path 65" d="M534.56,720.18c7.81-23.94,0-42.83,0-42.83a15.621,15.621,0,0,0-14.613-15.59h1a15.62,15.62,0,0,1,15.62,15.62s7.81,18.9,0,42.83c-.4,1.22-4.52,1.56-9.64,1.51C531.09,721.63,534.22,721.23,534.56,720.18Z" transform="translate(-154.5 -94.48)" fill="#fff" opacity="0.2"/>
  <g id="Group_11" data-name="Group 11" opacity="0.2">
    <path id="Path_66" data-name="Path 66" d="M518.93,737.41l-13.85,45.51h-2l14.11-46.36S517.84,736.84,518.93,737.41Z" transform="translate(-154.5 -94.48)" fill="#fff"/>
    <path id="Path_67" data-name="Path 67" d="M534.31,720.43h2a65,65,0,0,1,19.8,61.81l-.15.68h-2l.15-.68A65,65,0,0,0,534.31,720.43Z" transform="translate(-154.5 -94.48)" fill="#fff"/>
  </g>
  <path id="Path_68" data-name="Path 68" d="M517.49,688.94s46.9,14.91,72.88-10l-5.51-7.21s-50.4,11.23-62.41,3S517.49,688.94,517.49,688.94Z" transform="translate(-154.5 -94.48)" fill="#1f3a65"/>
  <path id="Path_69" data-name="Path 69" d="M589.05,678l.92,1.2c-26,24.92-72.88,10-72.88,10s-.12-.38-.3-1C522.38,689.87,564.81,701.28,589.05,678Z" transform="translate(-154.5 -94.48)" fill="#fff" opacity="0.2"/>
  <path id="Path_70" data-name="Path 70" d="M589.37,678.93s3.84.87,5.61-4.28-4.4-7.42-4.4-7.42-6.43,2.37-6.41,4.89S589.37,678.93,589.37,678.93Z" transform="translate(-154.5 -94.48)" fill="#feb19e"/>
  <path id="Path_71" data-name="Path 71" d="M588.76,678.12s3.84.87,5.61-4.28a4.83,4.83,0,0,0-.45-4.36,4.9,4.9,0,0,1,1.06,5.16c-1.77,5.16-5.61,4.28-5.61,4.28a27.322,27.322,0,0,1-4.12-4.31,29.833,29.833,0,0,0,3.51,3.51Z" transform="translate(-154.5 -94.48)" fill="#fff" opacity="0.2"/>
  <path id="Path_72" data-name="Path 72" d="M522.12,637.15l-1,21h-22V647c0-22.39,23.67-30.89,37-12.9C536.45,634.59,522.12,637.15,522.12,637.15Z" transform="translate(-154.5 -94.48)" fill="#5e3434"/>
  <path id="Path_73" data-name="Path 73" d="M517.18,624.49c5.61.46,11.38,3.52,15.94,9.67.33.44-14,3-14,3l-1,21h3l1-21s14.33-2.56,14-3C530.75,626.9,523.69,624,517.18,624.49Z" transform="translate(-154.5 -94.48)" fill="#fff" opacity="0.2"/>
</svg>
