<svg xmlns="http://www.w3.org/2000/svg" xmlns:xlink="http://www.w3.org/1999/xlink" width="639.302" height="358.485" viewBox="0 0 639.302 358.485">
  <defs>
    <linearGradient id="linear-gradient" x1="0.5" y1="0.944" x2="0.5" y2="0.102" gradientUnits="objectBoundingBox">
      <stop offset="0" stop-color="#1f3a65"/>
      <stop offset="1" stop-color="#294a7a"/>
    </linearGradient>
    <linearGradient id="linear-gradient-2" x1="0.5" y1="1.04" x2="0.5" y2="0.166" xlink:href="#linear-gradient"/>
    <linearGradient id="linear-gradient-3" x1="0.5" y1="1.031" x2="0.5" y2="0.253" xlink:href="#linear-gradient"/>
    <linearGradient id="linear-gradient-4" x1="0.703" y1="0.96" x2="0.33" y2="-0.043" gradientUnits="objectBoundingBox">
      <stop offset="0" stop-color="#c2185b"/>
      <stop offset="1" stop-color="#e91e63"/>
    </linearGradient>
    <linearGradient id="linear-gradient-5" x1="0.508" y1="0.868" x2="0.491" y2="0.143" gradientUnits="objectBoundingBox">
      <stop offset="0" stop-color="#3f2323"/>
      <stop offset="1" stop-color="#5e3434"/>
    </linearGradient>
    <linearGradient id="linear-gradient-6" x1="0" y1="0.5" x2="1" y2="0.5" xlink:href="#linear-gradient"/>
    <linearGradient id="linear-gradient-7" x1="0.948" y1="-0.448" x2="0.223" y2="0.846" gradientUnits="objectBoundingBox">
      <stop offset="0" stop-color="#e2e8f7"/>
      <stop offset="1" stop-color="#fff"/>
    </linearGradient>
  </defs>
  <g id="OBJECTS" transform="translate(-55.349 -104.001)">
    <g id="Group_37" data-name="Group 37">
      <g id="Group_1" data-name="Group 1">
        <path id="Path_1" data-name="Path 1" d="M623.438,284.044a314.872,314.872,0,0,1-3.366,49.725c-.161,1.111-.338,2.222-.531,3.3-1.192,7.2-2.641,13.913-4.283,20.112q-.435,1.594-.87,3.14c-6.312,22.061-15.281,36.972-24.846,42.479H187.733s-34.25-29.693-41.126-72.108c-.177-1.079-.338-2.158-.467-3.252-2.673-21.111,1.626-45.152,20.128-70.16,8.438-11.384,19.533-19.307,32.27-24.765,1-.419,1.98-.822,3-1.208,18.888-7.391,41.078-9.71,63.364-10.064,1.127-.017,2.254-.033,3.381-.033,13.269-.1,26.5.451,39.049.951,1.192.064,2.367.112,3.543.161,20.257.853,38.517,1.481,51.77-.95h.016c1.224-.226,2.383-.484,3.51-.773h.016c14.67-3.591,21.9-11.916,16.7-29.822-10.081-34.734.241-60.192,22.7-74.25,1.144-.724,2.335-1.417,3.543-2.077,12.705-6.892,28.759-10.5,46.923-10.45,1.272,0,2.56.032,3.865.064a176.109,176.109,0,0,1,49.805,9.323,158.292,158.292,0,0,1,26.328,11.449c1,.548,2,1.111,2.963,1.691a153.3,153.3,0,0,1,40.466,33.977c.756.869,1.481,1.755,2.206,2.657C610.556,198.748,623.148,244.689,623.438,284.044Z" fill="#e4ebf7"/>
        <path id="Path_2" data-name="Path 2" d="M615.258,357.182q-.435,1.594-.87,3.14a133.343,133.343,0,0,1-18.582-8.309c-29.468-16.006-66.987-51.657-78.356-130.689-4.9-34.073,1.353-66.52,18.6-96.487,1,.548,2,1.111,2.963,1.691-15.137,26.279-23.639,57.7-18.373,94.329,11.175,77.631,47.792,112.59,76.551,128.241A126.464,126.464,0,0,0,615.258,357.182Z" fill="#fff"/>
        <path id="Path_3" data-name="Path 3" d="M620.072,333.769c-.161,1.111-.338,2.222-.531,3.3-18.615-8.744-42.076-27.761-53.026-69.048-10.579-39.983-6.361-75.473,12.963-107.517.756.869,1.481,1.755,2.206,2.657C563.31,194.207,559.4,228.554,569.639,267.2,580.106,306.7,602.279,325.154,620.072,333.769Z" fill="#fff"/>
        <path id="Path_4" data-name="Path 4" d="M444.377,171.486c1.562,52.463-4.413,86.359-19.372,109.933-15.668,24.7-41.8,39.629-84.748,48.4a117.674,117.674,0,0,1-23.671,2.463c-24.17,0-46.939-7.874-66.89-23.268-23.2-17.922-40.965-44.91-51.158-76.5,1-.419,1.98-.822,3-1.208,9.984,31.062,27.391,57.6,50.144,75.167,25.57,19.758,55.988,26.73,87.936,20.209,79.869-16.344,104.538-54.041,101.543-155.1-.853-28.695,4.155-51.335,14.895-67.582,1.272,0,2.56.032,3.865.064C448.74,119.845,443.523,142.453,444.377,171.486Z" fill="#fff"/>
        <path id="Path_5" data-name="Path 5" d="M344.717,280.05a62.876,62.876,0,0,1-10.241.838c-25.748,0-55.232-15.6-69.579-59.644,1.127-.017,2.254-.033,3.381-.033,15.813,47.278,49.709,59.967,75.908,55.667,35.394-5.8,69.435-42.237,62.849-98.355-2.835-24.073-2.963-44.62-1.45-61.995,1.144-.724,2.335-1.417,3.543-2.077-1.755,17.7-1.82,38.791,1.111,63.7C417.05,236.251,381.56,274.012,344.717,280.05Z" fill="#fff"/>
        <path id="Path_6" data-name="Path 6" d="M366.166,220.6a41.013,41.013,0,0,1-7.133,16.263c-4.944,6.473-11.884,10.306-20.628,11.385a25.245,25.245,0,0,1-3.091.193,22.535,22.535,0,0,1-14.815-5.555c-5.829-4.9-10.08-12.5-13.172-20.724,1.192.064,2.367.112,3.543.161,2.866,7.278,6.666,13.864,11.706,18.1A19.471,19.471,0,0,0,338,245.059c7.858-.966,14.057-4.379,18.469-10.128a36.614,36.614,0,0,0,6.168-13.558h.016C363.88,221.147,365.039,220.889,366.166,220.6Z" fill="#fff"/>
        <path id="Path_7" data-name="Path 7" d="M241.129,402.8h-3.51c-14.444-33.075-35.265-55.12-61.963-65.57a101.374,101.374,0,0,0-29.049-6.538c-.177-1.079-.338-2.158-.467-3.252a104.8,104.8,0,0,1,30.692,6.795C204.705,345.153,226.315,368.18,241.129,402.8Z" fill="#fff"/>
      </g>
      <g id="Group_36" data-name="Group 36">
        <path id="Path_8" data-name="Path 8" d="M463.007,462.485Z" fill="#fff" stroke="#0f22d3" stroke-miterlimit="10" stroke-width="1.61"/>
        <g id="Group_5" data-name="Group 5">
          <g id="Group_3" data-name="Group 3">
            <g id="Group_2" data-name="Group 2">
              <path id="Path_9" data-name="Path 9" d="M171.43,303.12l-9.952,10.258-4.154-6.1-1.385-2.045c-4.428,1.111-10.966-7.552-13.591-12.174-2.608-4.637,7.858-11.787,7.858-11.787-1.706-5.121-8.566-8.341-8.759-9.758-.194-1.4,1.513-2.915,7.745,0,6.248,2.931,11.674,13.285,11.674,13.285,1.111-3.012-3.816-11.159-2.914-12.077.9-.9,5.732.209,9.452,8.051,3.736,7.858,1.514,17.117,1.514,17.117l.048.081Z" fill="#98b2d8"/>
              <path id="Path_10" data-name="Path 10" d="M149.838,280.367s7.394,8.458,6.6,11.779-4.521-.532-4.521-.532,3.422,3.954,2.315,5.263-5.233-2.013-5.233-2.013,4.931,6.139,0,5.233-11.126-10.206-6.368-11.142c0,0-.576-6.772,3.751-4.457C146.378,284.5,144.441,278.853,149.838,280.367Z" fill="#b1c3e8"/>
            </g>
            <path id="Path_11" data-name="Path 11" d="M239.683,402.86s8.325-24.315,3.946-48.292a.939.939,0,0,1-.033-.161,1.19,1.19,0,0,0-.032-.193q-.193-.942-.386-1.884a101.2,101.2,0,0,1-11.5,8.406c-8,5.04-18.679,10.047-26.875,7.7-15.04-4.3-37.036-33.542-47.245-56.633a26.773,26.773,0,0,1,15.3-10s20.4,27.181,38.388,33.622a132.663,132.663,0,0,0,17.166-28.453c4.8-10.789,12-17.616,21.078-21.288a49.15,49.15,0,0,1,17.181-3.381l15.765-7.359a59.3,59.3,0,0,1,6.538.531c7.391.966,19.677,3.672,29.612,11.24,15.3,11.658,37.31,116.148,37.31,116.148Z" fill="#b7cae5"/>
            <path id="Path_12" data-name="Path 12" d="M243.6,354.407c-.128-.692-.273-1.385-.418-2.077a101.2,101.2,0,0,1-11.5,8.406l4.654-39.806C241.068,339.158,243.339,352.781,243.6,354.407Z" fill="#97b3d1"/>
            <path id="Path_13" data-name="Path 13" d="M288.974,275.472c-2.432,15.459-17.907,29.742-29.082,29.549-8.985-.162-10.306-13.044-10.4-19.34a49.15,49.15,0,0,1,17.181-3.381l15.765-7.359A59.3,59.3,0,0,1,288.974,275.472Z" fill="#ced9ea"/>
            <path id="Path_14" data-name="Path 14" d="M262.223,387.061s35.5-36.945,37.045-75.793l10.467,32.742L305.71,378.1Z" fill="#97b3d1"/>
            <path id="Path_15" data-name="Path 15" d="M261.192,402.852H221.439a8.126,8.126,0,0,1,6.24-7.246c6.139-1.812,10.064-9.46,28.481-8.454Z" fill="#98b2d8"/>
            <path id="Path_16" data-name="Path 16" d="M301.864,366.317s-18.728,10.771-48.22,18.42c0,0-4.092,9.862,3.087,18.115h57.057Z" fill="#b6c5dd"/>
          </g>
          <g id="Group_4" data-name="Group 4">
            <path id="Path_17" data-name="Path 17" d="M232.127,253.409s-8.477-11.7-7.435-19.581,8.336-6.028,8.336-6.028-.34-19.145,17.383-14.25c0,0-.39-5.846,3.479-5.694s9.939,9.052,9.939,9.052,1.506-6.594,4.127-5.037,3.429,8.362,8.9,11.638,8.86,7.516,4.562,20.8-1.073,14.224-2.608,21.044c-1.458,6.478-2.622,10.418-6.643,10.782s-19.41-15.872-19.41-15.872Z" fill="#5d7ca0"/>
            <path id="Path_18" data-name="Path 18" d="M282.436,274.941s-9.871,23.944-20.241,22.141c-5.153-.9-6.3-4.042-6.345-7.681-.048-4.75,1.8-10.322-1-12.657l12.431-17.664,2.738-3.9A64.419,64.419,0,0,0,282.436,274.941Z" fill="#98b2d8"/>
            <path id="Path_19" data-name="Path 19" d="M255.85,289.4c-.048-4.75,1.8-10.322-1-12.657l12.431-17.664c1.063,1.24,1.82,3.446,2.126,6.908C271.051,284.232,261.406,288.467,255.85,289.4Z" fill="#799cbf"/>
            <path id="Path_20" data-name="Path 20" d="M230.919,244.1s3.361,30.844,15.947,37.787c10.938,6.034,24.223-12.216,23.956-21.243,0,0,4.768-3.641,3.972-9.535s-7.027-3.939-7.774,5.559c0,0-5.067-.361-6-12.232-3.181,2.634-6.614,1.822-10.22-1.382,0,0-1.79,6.607-11-1.114C239.8,241.939,236.324,246.656,230.919,244.1Z" fill="#98b2d8"/>
          </g>
        </g>
        <g id="Group_11" data-name="Group 11">
          <g id="Group_6" data-name="Group 6">
            <path id="Path_21" data-name="Path 21" d="M527.791,363.6s16.246,27.106,21.873,40.256H492.379a235.131,235.131,0,0,0-9-31.07Z" fill="#5d7ca0"/>
            <path id="Path_22" data-name="Path 22" d="M505.449,369.64c-3.135,10.389-7.915,19.258-15.007,25.994l1.937,8.224L423.056,403l7.717-47.453Z" fill="#799cbf"/>
          </g>
          <g id="Group_7" data-name="Group 7">
            <path id="Path_23" data-name="Path 23" d="M614.2,221.711s2.294-14.372,6.857-19.471,17.041-12.642,18.518-9.958-11,11.1-11,11.1,5.636-1.342,10.467,6.978-10.735,14.76-10.735,14.76l-3.087,6.978-12.345-7.783Z" fill="#799cbf"/>
            <path id="Path_24" data-name="Path 24" d="M630.16,203.653s-6.957,7.073-5.94,9.094,4.852-1.155,4.852-1.155-3.13,4.765-.705,5.992,6.182-2.888,6.182-2.888-3.13,4.332-1.33,5.126,11.424-5.991,9.7-7.58-2.66-.289-2.66-.289,2.014-3.392,0-4.475a2.322,2.322,0,0,0-3.286.938s1.643-2.6.313-3.609-4.147.289-4.147.289S634.064,200.766,630.16,203.653Z" fill="#98b2d8"/>
            <path id="Path_25" data-name="Path 25" d="M623.7,203.481c-2.114-.6-6.408,3.791-6.408,3.791-1.689,2.173-2.034,6.5-2.1,8.5-.216,5.576-2.326,8.543-2.326,8.543l6.265,3.95c4.852-6.25,3.264-14.254,2.481-17.086C623.978,207.645,624.964,203.842,623.7,203.481Z" fill="#98b2d8"/>
          </g>
          <g id="Group_8" data-name="Group 8">
            <path id="Path_26" data-name="Path 26" d="M627.757,233.573s-20.934,55.747-54.2,60.691a171.256,171.256,0,0,1-33.976,2.013c-9.372-.483-13.977-1.9-14.316-2a.016.016,0,0,1-.016-.016s-9.13,17-3.22,41.432c5.893,24.412,8.051,29.516,8.051,29.516s-44.846,32.978-81.318,2.947l-32.914-51.174L405.54,300.946s9.469-31.094,36.167-51.3l.016-.017a81.709,81.709,0,0,1,37.97-15.973,96.514,96.514,0,0,1,25.957-.242s7.247,2.045,19.034,6.361c6.344,2.318,14.009,5.3,22.559,8.969,24.428,10.467,31.143,13.59,31.143,13.59s26.022-25.667,32.737-41.238C611.123,221.094,624.536,222.446,627.757,233.573Z" fill="#b7cae5"/>
            <path id="Path_27" data-name="Path 27" d="M459.809,259.026c-.12,12.494-2.791,24.6-3.966,34l20.686-4.188,32.187,31.823s4.078,9.325-4.224,10.935c-6.505,1.262-36.9,5.49-36.9,5.49-7.006,9.535-10.172,24.122-13.666,38.276l-30.865-53.629Z" fill="#97b3d1"/>
            <path id="Path_28" data-name="Path 28" d="M505.65,262.026c-14.411-3.655-22-16.618-25.957-28.372a96.514,96.514,0,0,1,25.957-.242s7.247,2.045,19.034,6.361C526.069,250.062,525.569,267.067,505.65,262.026Z" fill="#ced9ea"/>
            <path id="Path_29" data-name="Path 29" d="M543.492,273.427a157.231,157.231,0,0,0-3.913,22.85c-9.372-.483-13.977-1.9-14.316-2a.016.016,0,0,1-.016-.016S533.427,280.271,543.492,273.427Z" fill="#97b3d1"/>
          </g>
          <g id="Group_9" data-name="Group 9">
            <rect id="Rectangle_2" data-name="Rectangle 2" width="40.215" height="59.177" rx="1.946" transform="matrix(0.99, -0.144, 0.144, 0.99, 461.148, 272.901)" fill="#f2f4f9"/>
            <path id="Path_30" data-name="Path 30" d="M481.362,291.14l5.5-2.147s5.233-14.492,11.742-5.368c0,0,4.5-2.683,4.361-4.159s-.2-3.623-.2-3.623,9.109,1.968,7.071,14.671-9.822,11.093-17.47,11.227l-9.528,3.757Z" fill="#98b2d8"/>
            <path id="Path_31" data-name="Path 31" d="M484.91,308.853s-42.865,28.373-61.383,14.686a74.573,74.573,0,0,1-7.681-6.554L405.54,300.946s9.469-31.094,36.167-51.3l.016-.017c8.85-3.975,18.1-2.528,18.572,5.67,1.132,19.53-15.571,31.538-17.638,40.4l38.421-7.777S487.326,294.554,484.91,308.853Z" fill="#c1cfe5"/>
          </g>
          <g id="Group_10" data-name="Group 10">
            <path id="Path_32" data-name="Path 32" d="M535.3,203.7s6.125-13.087,3.62-20.629-9.321-4.354-9.321-4.354-3.266-18.867-19.752-10.727c0,0-.716-5.815-4.488-4.938s-8.059,10.759-8.059,10.759-2.719-6.193-5-4.172-1.795,8.859-6.556,13.105-7.289,9.048-.57,21.286,3.729,13.769,6.519,20.179c2.65,6.087,4.534,9.738,8.552,9.34s16.079-19.239,16.079-19.239Z" fill="#5d7ca0"/>
            <path id="Path_33" data-name="Path 33" d="M489.935,234.3s9.476,23.355,24.371,19.531c5.066-1.3,5.1-6.744,4.459-10.327-.846-4.675-3.712-9.8-1.4-12.619l-15.531-15.012-3.422-3.313A64.434,64.434,0,0,1,489.935,234.3Z" fill="#98b2d8"/>
            <path id="Path_34" data-name="Path 34" d="M518.765,243.509c-.846-4.675-3.712-9.8-1.4-12.619l-15.531-15.012c-.811,1.418-1.14,3.727-.789,7.185C502.863,241.29,513.133,243.636,518.765,243.509Z" fill="#799cbf"/>
            <path id="Path_35" data-name="Path 35" d="M534.733,194.327s2.5,30.926-8.557,40.111c-9.609,7.983-26.088-7.443-27.523-16.36,0,0-5.367-2.679-5.694-8.617s6.161-5.19,8.68,4c0,0,4.909-1.308,3.6-13.143,3.62,1.988,6.839.546,9.779-3.279,0,0,3,6.152,10.592-3.163C525.607,193.874,529.906,197.854,534.733,194.327Z" fill="#98b2d8"/>
          </g>
        </g>
        <g id="Group_17" data-name="Group 17">
          <g id="Group_12" data-name="Group 12">
            <path id="Path_36" data-name="Path 36" d="M456.1,385.759v.016a21.543,21.543,0,0,1-1.981,5.2c-7.778,14.219-41.464,11.884-41.464,11.884h-76.89c-31.819,0-44.572-.789-47.616-10.724a12.9,12.9,0,0,1-.418-1.691c-2.158-11.546,8.582-49.113,28.437-74.877,10.161-13.172,20.659-20.112,30.015-23.736a60.352,60.352,0,0,1,22.367-3.912c9.758,0,17.632.724,24.315,2.286,17.938,4.2,27.326,14.347,41.4,32.334C451.481,344.52,459.951,370.333,456.1,385.759Z" fill="url(#linear-gradient)"/>
            <path id="Path_37" data-name="Path 37" d="M320.872,376.637c8.344-13.123,10.967-31.327,13.285-49.8l7.247,37.573h62.8l11.54-37.573c-.272,17.561,2.137,34.783,10.467,51.26C426.211,378.094,385.147,424.562,320.872,376.637Z" fill="#1f395e" opacity="0.22" style="mix-blend-mode: multiply;isolation: isolate"/>
            <path id="Path_38" data-name="Path 38" d="M339.938,402.86h-4.17c-31.819,0-44.572-.789-47.616-10.724-1.658-7.81.451-16.023,9.968-18.47,14.911-3.832,40.868,11.272,40.868,11.272Z" fill="url(#linear-gradient-2)"/>
            <path id="Path_39" data-name="Path 39" d="M456.1,385.759s.016,0,0,.016a21.543,21.543,0,0,1-1.981,5.2c-7.778,14.219-41.464,11.884-41.464,11.884H389.84l2.9-19.323s40.45-18.728,54.942-12.882C454.766,373.505,456.94,379.431,456.1,385.759Z" fill="url(#linear-gradient-3)"/>
            <path id="Path_40" data-name="Path 40" d="M392.868,290.206c-.677,9.034-4.413,25.491-22.608,25.491-19.179,0-23.237-16.216-24.074-23.865a60.352,60.352,0,0,1,22.367-3.912C378.311,287.92,386.185,288.644,392.868,290.206Z" fill="#1f395e"/>
          </g>
          <g id="Group_13" data-name="Group 13">
            <path id="Path_41" data-name="Path 41" d="M409.437,402.852H335.768a3.221,3.221,0,0,1-3.221-3.221h0a3.221,3.221,0,0,1,3.221-3.22h73.669a3.221,3.221,0,0,1,3.221,3.22h0A3.221,3.221,0,0,1,409.437,402.852Z" fill="#fff"/>
            <path id="Path_42" data-name="Path 42" d="M418.358,347.467l-.274,1.675v.016l-7.632,47.261H335.365l-7.552-48.984a3.974,3.974,0,0,1,3.913-4.573h82.719A3.966,3.966,0,0,1,418.358,347.467Z" fill="url(#linear-gradient-4)"/>
            <path id="Path_43" data-name="Path 43" d="M418.084,349.158l-7.632,47.261H335.768l25.313-2.641A68.081,68.081,0,0,0,418.084,349.158Z" fill="#ad1457"/>
          </g>
          <g id="Group_16" data-name="Group 16">
            <g id="Group_14" data-name="Group 14">
              <path id="Path_44" data-name="Path 44" d="M369.954,308.853h-.5a17.613,17.613,0,0,1-7.246-1.465,13.07,13.07,0,0,1-7.487-12.255c.016-.531.016-1.046.016-1.561.016-4.3-.258-7.875-.258-7.875v-1.932l27.052-1.208a62.491,62.491,0,0,0,1.079,10.129c.016.048.016.08.032.129A13.413,13.413,0,0,1,369.954,308.853Z" fill="#feb19e"/>
              <path id="Path_45" data-name="Path 45" d="M382.61,292.686c-11.272,13.236-22.849,5.507-27.873.886.016-4.3-.258-7.875-.258-7.875v-1.932l27.052-1.208A62.491,62.491,0,0,0,382.61,292.686Z" fill="#ff856a"/>
            </g>
            <g id="Group_15" data-name="Group 15">
              <path id="Path_46" data-name="Path 46" d="M346.2,270.615s8.388,23.645,22.377,23.645,19.8-25.461,19.8-25.461V246.657H345.127Z" fill="#feb19e"/>
              <path id="Path_47" data-name="Path 47" d="M341.7,257.275s-4.12.754-3.415,5.484,5,10.467,8.487,7.448Z" fill="#feb19e"/>
              <path id="Path_48" data-name="Path 48" d="M391.648,255.3s4.184.187,4.13,4.969-3.529,11.049-7.4,8.533Z" fill="#feb19e"/>
              <path id="Path_49" data-name="Path 49" d="M391.648,255.3a110.6,110.6,0,0,1-3.266,13.5s-3.315-.668-4.388-9.39a11.845,11.845,0,0,1-11.66-5.372s-1.073,6.709-7.984,1.946c-4.608,3.762-10.056,4.158-16.237,1.61,0,0,1.04,8.8-1.913,13.022,0,0-1.073-3.475-4.5-13.34a3.319,3.319,0,0,0-2.412,1.394s-7.411-14.5-3.922-21.473,8.186-4.294,8.186-4.294-1.745-9.527,8.588-13.016,10.332-8.186,11.943-7.246,2.281,4.428,2.281,4.428,17.847-1.879,22.678,17.31c0,0,12.889.412,5.241,22.016C394.282,256.394,393.778,255.5,391.648,255.3Z" fill="url(#linear-gradient-5)"/>
            </g>
          </g>
        </g>
        <path id="Path_50" data-name="Path 50" d="M408.632,282.557" fill="#fff" stroke="#0f22d3" stroke-miterlimit="10" stroke-width="1.61"/>
        <g id="Group_19" data-name="Group 19">
          <path id="Path_51" data-name="Path 51" d="M322.693,275.394H255.254a3.973,3.973,0,0,0-3.973,3.972v40.252a3.973,3.973,0,0,0,3.973,3.973h46.519L313.9,334.344a1.191,1.191,0,0,0,1.916-1.281l-3.279-9.472h10.151a3.973,3.973,0,0,0,3.973-3.973V279.366A3.973,3.973,0,0,0,322.693,275.394Z" fill="#9abced" opacity="0.6" style="mix-blend-mode: multiply;isolation: isolate"/>
          <g id="Group_18" data-name="Group 18" style="mix-blend-mode: multiply;isolation: isolate">
            <path id="Path_52" data-name="Path 52" d="M276.174,286.163H260.638a1.059,1.059,0,0,1-1.059-1.059h0a1.059,1.059,0,0,1,1.059-1.059h15.536a1.059,1.059,0,0,1,1.059,1.059h0A1.059,1.059,0,0,1,276.174,286.163Z" fill="#9abced"/>
            <path id="Path_53" data-name="Path 53" d="M314.484,295.344H269.465a1.06,1.06,0,0,1-1.059-1.06h0a1.059,1.059,0,0,1,1.059-1.059h45.019a1.059,1.059,0,0,1,1.059,1.059h0A1.06,1.06,0,0,1,314.484,295.344Z" fill="#9abced"/>
            <path id="Path_54" data-name="Path 54" d="M314.484,301.876H260.638a1.059,1.059,0,0,1-1.059-1.059h0a1.059,1.059,0,0,1,1.059-1.06h53.846a1.059,1.059,0,0,1,1.059,1.06h0A1.059,1.059,0,0,1,314.484,301.876Z" fill="#9abced"/>
            <path id="Path_55" data-name="Path 55" d="M314.484,308.408H260.638a1.059,1.059,0,0,1-1.059-1.059h0a1.06,1.06,0,0,1,1.059-1.06h53.846a1.06,1.06,0,0,1,1.059,1.06h0A1.059,1.059,0,0,1,314.484,308.408Z" fill="#9abced"/>
            <path id="Path_56" data-name="Path 56" d="M314.484,314.94H260.638a1.059,1.059,0,0,1-1.059-1.059h0a1.059,1.059,0,0,1,1.059-1.059h53.846a1.059,1.059,0,0,1,1.059,1.059h0A1.059,1.059,0,0,1,314.484,314.94Z" fill="#9abced"/>
          </g>
        </g>
        <g id="Group_21" data-name="Group 21">
          <rect id="Rectangle_3" data-name="Rectangle 3" width="493.014" height="10.467" rx="1.747" transform="translate(130.419 402.852)" fill="#c1c8d3"/>
          <g id="Group_20" data-name="Group 20">
            <path id="Rectangle_4" data-name="Rectangle 4" d="M0,0H20.933a0,0,0,0,1,0,0V18.116a7.649,7.649,0,0,1-7.649,7.649H7.649A7.649,7.649,0,0,1,0,18.116V0A0,0,0,0,1,0,0Z" transform="translate(500.578 377.037)" fill="url(#linear-gradient-6)"/>
            <path id="Path_57" data-name="Path 57" d="M507.221,377.037v-5.585a1.66,1.66,0,0,1,1.66-1.661h2.114a1.66,1.66,0,0,0,1.66-1.661v-2.113a1.661,1.661,0,0,0-1.66-1.661H504.2a8.453,8.453,0,0,1-8.454-8.453h0a8.454,8.454,0,0,1,8.454-8.454h9.007a1.661,1.661,0,0,0,1.661-1.661v-.755a8.755,8.755,0,0,1,8.755-8.755h0a8.756,8.756,0,0,1,8.756,8.755h0a9.46,9.46,0,0,1-9.46,9.461H507.07a1.661,1.661,0,0,0-1.661,1.66h0a1.661,1.661,0,0,0,1.661,1.661h8.655a5.787,5.787,0,0,1,5.787,5.787v3.623a5.787,5.787,0,0,1-5.787,5.787h0a1.661,1.661,0,0,0-1.661,1.66v2.365Z" fill="url(#linear-gradient-7)"/>
          </g>
        </g>
        <g id="Group_35" data-name="Group 35">
          <g id="Group_25" data-name="Group 25">
            <rect id="Rectangle_5" data-name="Rectangle 5" width="62.599" height="77.091" rx="3.824" transform="translate(433.378 270.307)" fill="#9abced" opacity="0.6" style="mix-blend-mode: multiply;isolation: isolate"/>
            <path id="Path_58" data-name="Path 58" d="M495.642,344.849h-54.95a4.635,4.635,0,0,1-4.63-4.629V270.777a4.635,4.635,0,0,1,4.63-4.629h54.95a4.635,4.635,0,0,1,4.629,4.629V340.22A4.635,4.635,0,0,1,495.642,344.849Zm-54.95-77.091a3.022,3.022,0,0,0-3.02,3.019V340.22a3.022,3.022,0,0,0,3.02,3.019h54.95a3.022,3.022,0,0,0,3.019-3.019V270.777a3.022,3.022,0,0,0-3.019-3.019Z" fill="#4f7eb7"/>
            <g id="Group_22" data-name="Group 22" style="mix-blend-mode: multiply;isolation: isolate">
              <path id="Path_59" data-name="Path 59" d="M454.983,294.974H442.771V280.348h12.212Zm-10.6-1.611h8.992v-11.4h-8.992Z" fill="#7ca6d8" opacity="0.71" style="mix-blend-mode: multiply;isolation: isolate"/>
              <path id="Path_60" data-name="Path 60" d="M451.91,290.437l-3.632-4.049,1.2-1.076,2.2,2.458a21.457,21.457,0,0,1,9.037-6.556l.613,1.488c-6.468,2.664-8.842,6.724-8.864,6.765Z" fill="#ea9ba1"/>
              <path id="Path_61" data-name="Path 61" d="M486.126,285.826H467.182a1.2,1.2,0,0,1-1.2-1.2h0a1.2,1.2,0,0,1,1.2-1.2h18.944a1.2,1.2,0,0,1,1.2,1.2h0A1.2,1.2,0,0,1,486.126,285.826Z" fill="#9abced"/>
              <path id="Path_62" data-name="Path 62" d="M486.126,291.633H467.182a1.2,1.2,0,0,1-1.2-1.2h0a1.2,1.2,0,0,1,1.2-1.2h18.944a1.2,1.2,0,0,1,1.2,1.2h0A1.2,1.2,0,0,1,486.126,291.633Z" fill="#9abced"/>
            </g>
            <g id="Group_23" data-name="Group 23" style="mix-blend-mode: multiply;isolation: isolate">
              <path id="Path_63" data-name="Path 63" d="M454.983,317.383H442.771V302.757h12.212Zm-10.6-1.61h8.992v-11.4h-8.992Z" fill="#7ca6d8" opacity="0.71" style="mix-blend-mode: multiply;isolation: isolate"/>
              <path id="Path_64" data-name="Path 64" d="M451.91,312.847l-3.632-4.05,1.2-1.075,2.2,2.458a21.448,21.448,0,0,1,9.037-6.556l.613,1.487c-6.468,2.664-8.842,6.724-8.864,6.765Z" fill="#ea9ba1"/>
              <path id="Path_65" data-name="Path 65" d="M486.126,308.235H467.182a1.2,1.2,0,0,1-1.2-1.2h0a1.2,1.2,0,0,1,1.2-1.2h18.944a1.2,1.2,0,0,1,1.2,1.2h0A1.2,1.2,0,0,1,486.126,308.235Z" fill="#9abced"/>
              <path id="Path_66" data-name="Path 66" d="M486.126,314.042H467.182a1.2,1.2,0,0,1-1.2-1.2h0a1.2,1.2,0,0,1,1.2-1.2h18.944a1.2,1.2,0,0,1,1.2,1.2h0A1.2,1.2,0,0,1,486.126,314.042Z" fill="#9abced"/>
            </g>
            <g id="Group_24" data-name="Group 24" style="mix-blend-mode: multiply;isolation: isolate">
              <path id="Path_67" data-name="Path 67" d="M454.983,339.793H442.771V325.167h12.212Zm-10.6-1.61h8.992V326.777h-8.992Z" fill="#7ca6d8" opacity="0.71" style="mix-blend-mode: multiply;isolation: isolate"/>
              <path id="Path_68" data-name="Path 68" d="M451.91,335.256l-3.632-4.049,1.2-1.076,2.2,2.458a21.457,21.457,0,0,1,9.037-6.556l.613,1.488c-6.468,2.664-8.842,6.724-8.864,6.765Z" fill="#ea9ba1"/>
              <path id="Path_69" data-name="Path 69" d="M486.126,330.645H467.182a1.2,1.2,0,0,1-1.2-1.2h0a1.2,1.2,0,0,1,1.2-1.2h18.944a1.2,1.2,0,0,1,1.2,1.2h0A1.2,1.2,0,0,1,486.126,330.645Z" fill="#9abced"/>
              <path id="Path_70" data-name="Path 70" d="M486.126,336.452H467.182a1.2,1.2,0,0,1-1.2-1.2h0a1.2,1.2,0,0,1,1.2-1.2h18.944a1.2,1.2,0,0,1,1.2,1.2h0A1.2,1.2,0,0,1,486.126,336.452Z" fill="#9abced"/>
            </g>
          </g>
          <g id="Group_28" data-name="Group 28">
            <rect id="Rectangle_6" data-name="Rectangle 6" width="62.599" height="77.091" rx="3.824" transform="translate(626.415 164.115)" fill="#9abced" opacity="0.6" style="mix-blend-mode: multiply;isolation: isolate"/>
            <path id="Path_71" data-name="Path 71" d="M690.021,237.619h-54.95a4.634,4.634,0,0,1-4.629-4.629V163.547a4.634,4.634,0,0,1,4.629-4.629h54.95a4.635,4.635,0,0,1,4.63,4.629V232.99A4.635,4.635,0,0,1,690.021,237.619Zm-54.95-77.091a3.023,3.023,0,0,0-3.019,3.019V232.99a3.023,3.023,0,0,0,3.019,3.019h54.95a3.022,3.022,0,0,0,3.019-3.019V163.547a3.022,3.022,0,0,0-3.019-3.019Z" fill="#4f7eb7"/>
            <g id="Group_27" data-name="Group 27" opacity="0.5" style="mix-blend-mode: multiply;isolation: isolate">
              <circle id="Ellipse_1" data-name="Ellipse 1" cx="9.662" cy="9.662" r="9.662" transform="translate(631.929 191.885) rotate(-76.661)" fill="#7ca6d8"/>
              <path id="Path_72" data-name="Path 72" d="M646.109,183.438l6.441-11.473c5.9,1.476,8.722,7.045,5.9,12.748Z" fill="#e83f54" style="mix-blend-mode: multiply;isolation: isolate"/>
              <g id="Group_26" data-name="Group 26">
                <path id="Path_73" data-name="Path 73" d="M640.07,204.841a2.818,2.818,0,1,1-2.818-2.818A2.818,2.818,0,0,1,640.07,204.841Z" fill="#9abced"/>
                <path id="Path_74" data-name="Path 74" d="M640.07,217.32a2.818,2.818,0,1,1-2.818-2.818A2.817,2.817,0,0,1,640.07,217.32Z" fill="#9abced"/>
                <path id="Path_75" data-name="Path 75" d="M676.838,207.659H654.294a2.818,2.818,0,0,1-2.818-2.818h0a2.818,2.818,0,0,1,2.818-2.818h22.544a2.818,2.818,0,0,1,2.818,2.818h0A2.818,2.818,0,0,1,676.838,207.659Z" fill="#9abced"/>
                <path id="Path_76" data-name="Path 76" d="M676.838,220.138H654.294a2.818,2.818,0,0,1-2.818-2.818h0a2.818,2.818,0,0,1,2.818-2.818h22.544a2.818,2.818,0,0,1,2.818,2.818h0A2.818,2.818,0,0,1,676.838,220.138Z" fill="#9abced"/>
                <path id="Path_77" data-name="Path 77" d="M640.07,230a2.818,2.818,0,1,1-2.818-2.818A2.817,2.817,0,0,1,640.07,230Z" fill="#9abced"/>
                <path id="Path_78" data-name="Path 78" d="M676.838,232.819H654.294A2.818,2.818,0,0,1,651.476,230h0a2.818,2.818,0,0,1,2.818-2.818h22.544A2.818,2.818,0,0,1,679.656,230h0A2.818,2.818,0,0,1,676.838,232.819Z" fill="#9abced"/>
              </g>
            </g>
          </g>
          <g id="Group_30" data-name="Group 30">
            <rect id="Rectangle_7" data-name="Rectangle 7" width="62.599" height="89.973" rx="3.824" transform="translate(156.431 128.61)" fill="#9abced" opacity="0.6" style="mix-blend-mode: multiply;isolation: isolate"/>
            <path id="Path_79" data-name="Path 79" d="M211.717,215.9h-54.95a4.634,4.634,0,0,1-4.63-4.629V128.946a4.634,4.634,0,0,1,4.63-4.629h54.95a4.634,4.634,0,0,1,4.629,4.629v82.325A4.634,4.634,0,0,1,211.717,215.9Zm-54.95-89.973a3.024,3.024,0,0,0-3.02,3.019v82.325a3.024,3.024,0,0,0,3.02,3.019h54.95a3.023,3.023,0,0,0,3.019-3.019V128.946a3.023,3.023,0,0,0-3.019-3.019Z" fill="#4f7eb7"/>
            <g id="Group_29" data-name="Group 29">
              <path id="Rectangle_8" data-name="Rectangle 8" d="M0,0H3.466a0,0,0,0,1,0,0V12.14a1.208,1.208,0,0,1-1.208,1.208H1.208A1.208,1.208,0,0,1,0,12.14V0A0,0,0,0,1,0,0Z" transform="matrix(0.748, -0.664, 0.664, 0.748, 174.23, 157.163)" fill="#7ca6d8"/>
              <path id="Path_80" data-name="Path 80" d="M171.423,140.486a9.259,9.259,0,1,0,9.259,9.259A9.26,9.26,0,0,0,171.423,140.486Zm0,15.569a6.31,6.31,0,1,1,6.31-6.31A6.313,6.313,0,0,1,171.423,156.055Z" fill="#7ca6d8"/>
              <path id="Path_81" data-name="Path 81" d="M208.934,145.585H194.307a1.677,1.677,0,0,1-1.677-1.677h0a1.677,1.677,0,0,1,1.677-1.678h14.627a1.677,1.677,0,0,1,1.677,1.678h0A1.677,1.677,0,0,1,208.934,145.585Z" fill="#9abced"/>
              <path id="Path_82" data-name="Path 82" d="M208.934,154.307H194.307a1.677,1.677,0,0,1-1.677-1.677h0a1.677,1.677,0,0,1,1.677-1.677h14.627a1.677,1.677,0,0,1,1.677,1.677h0A1.677,1.677,0,0,1,208.934,154.307Z" fill="#9abced"/>
              <path id="Path_83" data-name="Path 83" d="M208.934,162.359H194.307a1.677,1.677,0,0,1-1.677-1.678h0A1.677,1.677,0,0,1,194.307,159h14.627a1.677,1.677,0,0,1,1.677,1.677h0A1.677,1.677,0,0,1,208.934,162.359Z" fill="#9abced"/>
              <path id="Path_84" data-name="Path 84" d="M190.718,184.768H168.174a1.912,1.912,0,0,1-1.912-1.912h0a1.912,1.912,0,0,1,1.912-1.912h22.544a1.912,1.912,0,0,1,1.912,1.912h0A1.912,1.912,0,0,1,190.718,184.768Z" fill="#9abced"/>
              <path id="Path_85" data-name="Path 85" d="M190.718,196.745H168.174a1.912,1.912,0,0,1-1.912-1.913h0a1.912,1.912,0,0,1,1.912-1.912h22.544a1.912,1.912,0,0,1,1.912,1.912h0A1.912,1.912,0,0,1,190.718,196.745Z" fill="#9abced"/>
              <path id="Path_86" data-name="Path 86" d="M190.718,208.721H168.174a1.912,1.912,0,0,1-1.912-1.912h0a1.912,1.912,0,0,1,1.912-1.912h22.544a1.912,1.912,0,0,1,1.912,1.912h0A1.912,1.912,0,0,1,190.718,208.721Z" fill="#9abced"/>
              <path id="Path_87" data-name="Path 87" d="M208.38,182.856a3.07,3.07,0,1,1-3.069-3.069A3.07,3.07,0,0,1,208.38,182.856Z" fill="#9abced"/>
              <path id="Path_88" data-name="Path 88" d="M208.38,194.832a3.07,3.07,0,1,1-3.069-3.069A3.069,3.069,0,0,1,208.38,194.832Z" fill="#9abced"/>
              <path id="Path_89" data-name="Path 89" d="M208.38,206.809a3.07,3.07,0,1,1-3.069-3.07A3.069,3.069,0,0,1,208.38,206.809Z" fill="#9abced"/>
            </g>
          </g>
          <g id="Group_32" data-name="Group 32">
            <rect id="Rectangle_9" data-name="Rectangle 9" width="113.926" height="80.11" rx="6.642" transform="translate(376.415 139.731)" fill="#9abced" opacity="0.6" style="mix-blend-mode: multiply;isolation: isolate"/>
            <path id="Path_90" data-name="Path 90" d="M487.188,216.957H386.547a7.457,7.457,0,0,1-7.448-7.447V142.684a7.457,7.457,0,0,1,7.448-7.448H487.188a7.456,7.456,0,0,1,7.447,7.448V209.51A7.456,7.456,0,0,1,487.188,216.957ZM386.547,136.846a5.845,5.845,0,0,0-5.838,5.838V209.51a5.844,5.844,0,0,0,5.838,5.837H487.188a5.843,5.843,0,0,0,5.837-5.837V142.684a5.844,5.844,0,0,0-5.837-5.838Z" fill="#4f7eb7"/>
            <g id="Group_31" data-name="Group 31">
              <path id="Path_91" data-name="Path 91" d="M446.461,156.035H390.706a2.917,2.917,0,0,1-2.918-2.918h0a2.918,2.918,0,0,1,2.918-2.919h55.755a2.919,2.919,0,0,1,2.919,2.919h0A2.918,2.918,0,0,1,446.461,156.035Z" fill="#9abced" opacity="0.5" style="mix-blend-mode: multiply;isolation: isolate"/>
              <rect id="Rectangle_10" data-name="Rectangle 10" width="61.592" height="32.608" rx="2.063" transform="translate(387.788 166.301)" fill="#7ca6d8" opacity="0.71" style="mix-blend-mode: multiply;isolation: isolate"/>
              <path id="Path_92" data-name="Path 92" d="M476.05,156.035h-16.5a2.918,2.918,0,0,1-2.919-2.918h0a2.919,2.919,0,0,1,2.919-2.919h16.5a2.919,2.919,0,0,1,2.919,2.919h0A2.918,2.918,0,0,1,476.05,156.035Z" fill="#9abced" opacity="0.5" style="mix-blend-mode: multiply;isolation: isolate"/>
              <path id="Path_93" data-name="Path 93" d="M477.157,171.534H459.813A1.811,1.811,0,0,1,458,169.722h0a1.811,1.811,0,0,1,1.811-1.811h17.344a1.811,1.811,0,0,1,1.812,1.811h0A1.812,1.812,0,0,1,477.157,171.534Z" fill="#9abced" opacity="0.5" style="mix-blend-mode: multiply;isolation: isolate"/>
              <path id="Path_94" data-name="Path 94" d="M477.157,179.72H459.813A1.812,1.812,0,0,1,458,177.908h0a1.811,1.811,0,0,1,1.811-1.812h17.344a1.812,1.812,0,0,1,1.812,1.812h0A1.812,1.812,0,0,1,477.157,179.72Z" fill="#9abced" opacity="0.5" style="mix-blend-mode: multiply;isolation: isolate"/>
              <path id="Path_95" data-name="Path 95" d="M477.157,187.9H459.813A1.811,1.811,0,0,1,458,186.093h0a1.811,1.811,0,0,1,1.811-1.811h17.344a1.811,1.811,0,0,1,1.812,1.811h0A1.812,1.812,0,0,1,477.157,187.9Z" fill="#9abced" opacity="0.5" style="mix-blend-mode: multiply;isolation: isolate"/>
              <path id="Path_96" data-name="Path 96" d="M477.157,196.091H459.813A1.812,1.812,0,0,1,458,194.279h0a1.811,1.811,0,0,1,1.811-1.812h17.344a1.812,1.812,0,0,1,1.812,1.812h0A1.812,1.812,0,0,1,477.157,196.091Z" fill="#9abced" opacity="0.5" style="mix-blend-mode: multiply;isolation: isolate"/>
              <path id="Path_97" data-name="Path 97" d="M465.382,211.656H401.173a2.416,2.416,0,0,1-2.416-2.415h0a2.416,2.416,0,0,1,2.416-2.416h64.209a2.416,2.416,0,0,1,2.415,2.416h0A2.415,2.415,0,0,1,465.382,211.656Z" fill="#9abced" opacity="0.5" style="mix-blend-mode: multiply;isolation: isolate"/>
            </g>
          </g>
          <g id="Group_34" data-name="Group 34">
            <path id="Rectangle_11" data-name="Rectangle 11" d="M5.367,0h95.274a5.368,5.368,0,0,1,5.368,5.368v57.7a5.367,5.367,0,0,1-5.367,5.367H5.367A5.367,5.367,0,0,1,0,63.069V5.367A5.367,5.367,0,0,1,5.367,0Z" transform="translate(60.062 233.39)" fill="#9abced" opacity="0.6" style="mix-blend-mode: multiply;isolation: isolate"/>
            <path id="Path_98" data-name="Path 98" d="M156.8,298.671H61.522a6.18,6.18,0,0,1-6.173-6.172V234.8a6.18,6.18,0,0,1,6.173-6.172H156.8a6.18,6.18,0,0,1,6.173,6.172v57.7A6.18,6.18,0,0,1,156.8,298.671ZM61.522,230.235a4.568,4.568,0,0,0-4.563,4.562v57.7a4.567,4.567,0,0,0,4.563,4.561H156.8a4.566,4.566,0,0,0,4.562-4.561V234.8a4.567,4.567,0,0,0-4.562-4.562Z" fill="#4f7eb7"/>
            <g id="Group_33" data-name="Group 33" opacity="0.5" style="mix-blend-mode: multiply;isolation: isolate">
              <path id="Path_99" data-name="Path 99" d="M98.211,264.983a13.665,13.665,0,1,1-5.282-22.592l-4.38,12.946Z" fill="#7ca6d8"/>
              <path id="Path_100" data-name="Path 100" d="M104.016,254.283a11.512,11.512,0,0,1-3.4,8.192l-8.205-8.192,3.719-10.994A11.607,11.607,0,0,1,104.016,254.283Z" fill="#e83f54" style="mix-blend-mode: multiply;isolation: isolate"/>
              <path id="Path_101" data-name="Path 101" d="M150.168,269.8h-31.4V243.289a.805.805,0,1,1,1.61,0v24.9h29.79a.805.805,0,1,1,0,1.61Z" fill="#9abced"/>
              <rect id="Rectangle_12" data-name="Rectangle 12" width="4.026" height="12.047" transform="translate(125.344 256.141)" fill="#9abced"/>
              <rect id="Rectangle_13" data-name="Rectangle 13" width="4.026" height="18.159" transform="translate(133.663 250.029)" fill="#e83f54" style="mix-blend-mode: multiply;isolation: isolate"/>
              <rect id="Rectangle_14" data-name="Rectangle 14" width="4.026" height="9.079" transform="translate(141.849 259.108)" fill="#9abced"/>
              <rect id="Rectangle_15" data-name="Rectangle 15" width="21.739" height="2.818" rx="1.409" transform="translate(74.221 279.282)" fill="#9abced"/>
              <rect id="Rectangle_16" data-name="Rectangle 16" width="21.738" height="2.818" rx="1.409" transform="translate(103.068 279.282)" fill="#9abced"/>
              <rect id="Rectangle_17" data-name="Rectangle 17" width="21.739" height="2.818" rx="1.409" transform="translate(130.174 279.282)" fill="#9abced"/>
              <path id="Path_102" data-name="Path 102" d="M106.962,292.164H88.042a1.409,1.409,0,0,1-1.409-1.409h0a1.409,1.409,0,0,1,1.409-1.409h18.92a1.409,1.409,0,0,1,1.409,1.409h0A1.409,1.409,0,0,1,106.962,292.164Z" fill="#9abced"/>
              <path id="Path_103" data-name="Path 103" d="M134.069,292.164H115.148a1.409,1.409,0,0,1-1.409-1.409h0a1.409,1.409,0,0,1,1.409-1.409h18.921a1.409,1.409,0,0,1,1.409,1.409h0A1.409,1.409,0,0,1,134.069,292.164Z" fill="#9abced"/>
            </g>
          </g>
        </g>
      </g>
    </g>
  </g>
</svg>
